# Blender 4.5.2 LTS
# www.blender.org
mtllib bubble.mtl
o bubbleSpeech
v 0.241064 0.673663 -0.740100
v 0.060259 0.673663 -1.145755
v 0.060259 1.178879 -0.740100
v -0.036170 0.673663 -1.145755
v -0.216975 0.673663 -0.740100
v -0.036170 1.178879 -0.740100
v 0.241064 0.673663 0.255731
v 0.060259 1.178879 0.255731
v 0.060259 0.673663 0.661387
v -0.216975 0.673663 0.255731
v -0.036170 0.673663 0.661387
v -0.036170 1.178879 0.255731
v 0.241064 -0.720408 -0.740100
v 0.060259 -1.225624 -0.740100
v 0.060259 -0.720408 -1.145755
v -0.216975 -0.720408 -0.740100
v -0.036170 -0.720408 -1.145755
v -0.036170 -1.225624 -0.740100
v 0.241064 -0.720408 0.255731
v 0.060259 -0.720408 0.661386
v 0.060259 -1.225624 0.255731
v -0.216975 -0.720408 0.255731
v -0.036170 -1.225624 0.255731
v -0.036170 -0.720408 0.661386
v 0.103671 1.135295 -0.735203
v 0.154428 1.051692 -0.732566
v 0.202549 0.904625 -0.735203
v 0.202549 0.668767 -0.913503
v 0.154428 0.666130 -1.031013
v 0.103671 0.668767 -1.103727
v 0.055362 0.904625 -1.103727
v 0.052726 1.051692 -1.031013
v 0.055362 1.135295 -0.913503
v -0.031273 1.135295 -0.913503
v -0.028637 1.051692 -1.031013
v -0.031273 0.904625 -1.103727
v -0.079582 0.668767 -1.103727
v -0.130339 0.666130 -1.031013
v -0.178460 0.668767 -0.913503
v -0.178460 0.904625 -0.735203
v -0.130339 1.051692 -0.732566
v -0.079582 1.135295 -0.735203
v 0.103671 0.668767 0.619358
v 0.154428 0.666130 0.546645
v 0.202549 0.668767 0.429135
v 0.202549 0.904625 0.250834
v 0.154428 1.051692 0.248198
v 0.103671 1.135295 0.250834
v 0.055362 1.135295 0.429135
v 0.052726 1.051692 0.546645
v 0.055362 0.904625 0.619358
v -0.079582 1.135295 0.250834
v -0.130339 1.051692 0.248198
v -0.178460 0.904625 0.250834
v -0.178460 0.668767 0.429135
v -0.130339 0.666130 0.546645
v -0.079582 0.668767 0.619358
v -0.031273 0.904625 0.619358
v -0.028637 1.051692 0.546645
v -0.031273 1.135295 0.429135
v 0.103671 -0.715512 -1.103727
v 0.154428 -0.712875 -1.031013
v 0.202549 -0.715511 -0.913503
v 0.202549 -0.951370 -0.735203
v 0.154428 -1.098437 -0.732566
v 0.103671 -1.182040 -0.735203
v 0.055362 -1.182040 -0.913503
v 0.052726 -1.098437 -1.031013
v 0.055362 -0.951370 -1.103727
v -0.079582 -1.182040 -0.735203
v -0.130339 -1.098437 -0.732566
v -0.178460 -0.951370 -0.735203
v -0.178460 -0.715512 -0.913503
v -0.130339 -0.712875 -1.031013
v -0.079582 -0.715512 -1.103727
v -0.031273 -0.951370 -1.103727
v -0.028637 -1.098437 -1.031013
v -0.031273 -1.182040 -0.913503
v 0.103671 -1.182040 0.250834
v 0.154428 -1.098437 0.248198
v 0.202549 -0.951370 0.250834
v 0.202549 -0.715511 0.429135
v 0.154428 -0.712875 0.546645
v 0.103671 -0.715512 0.619358
v 0.055362 -0.951370 0.619358
v 0.052726 -1.098437 0.546645
v 0.055362 -1.182040 0.429135
v -0.079582 -0.715512 0.619358
v -0.130339 -0.712875 0.546645
v -0.178460 -0.715511 0.429135
v -0.178460 -0.951370 0.250834
v -0.130339 -1.098437 0.248198
v -0.079582 -1.182040 0.250834
v -0.031273 -1.182040 0.429135
v -0.028637 -1.098437 0.546645
v -0.031273 -0.951370 0.619358
v 0.264795 0.677054 0.023333
v 0.272705 0.678184 -0.242184
v 0.264795 0.677054 -0.507702
v 0.063649 1.202609 -0.507702
v 0.064779 1.210520 -0.242184
v 0.063649 1.202610 0.023333
v 0.031632 0.677054 -1.169486
v 0.012045 0.678183 -1.177396
v -0.007543 0.677054 -1.169486
v -0.007543 1.202609 -0.743490
v 0.012045 1.210520 -0.744620
v 0.031632 1.202609 -0.743490
v -0.240706 0.677053 -0.507702
v -0.248616 0.678183 -0.242184
v -0.240706 0.677053 0.023333
v -0.039560 1.202610 0.023333
v -0.040690 1.210520 -0.242184
v -0.039560 1.202609 -0.507702
v -0.007543 0.677053 0.685117
v 0.012045 0.678183 0.693027
v 0.031632 0.677053 0.685117
v 0.031632 1.202610 0.259121
v 0.012045 1.210520 0.260251
v -0.007543 1.202610 0.259121
v 0.264795 -0.397784 0.259121
v 0.272705 -0.023372 0.260251
v 0.264795 0.351039 0.259121
v 0.063649 0.351039 0.685117
v 0.064779 -0.023372 0.693027
v 0.063649 -0.397784 0.685117
v -0.240706 0.351039 0.259121
v -0.248616 -0.023372 0.260251
v -0.240706 -0.397784 0.259121
v -0.039560 -0.397784 0.685117
v -0.040690 -0.023372 0.693027
v -0.039560 0.351039 0.685117
v -0.007543 -1.249355 0.259121
v 0.012045 -1.257264 0.260251
v 0.031632 -1.249354 0.259121
v 0.031632 -0.723798 0.685117
v 0.012045 -0.724928 0.693027
v -0.007543 -0.723798 0.685117
v 0.264795 -0.723798 -0.507702
v 0.272705 -0.724928 -0.242184
v 0.264795 -0.723798 0.023333
v 0.063649 -1.249355 0.023333
v 0.064779 -1.257265 -0.242184
v 0.063649 -1.249355 -0.507702
v -0.240706 -0.723798 0.023333
v -0.248616 -0.724929 -0.242184
v -0.240706 -0.723798 -0.507702
v -0.039560 -1.249355 -0.507702
v -0.040690 -1.257265 -0.242184
v -0.039560 -1.249354 0.023333
v -0.007543 -0.723798 -1.169486
v 0.012045 -0.724928 -1.177396
v 0.031632 -0.723798 -1.169486
v 0.031632 -1.249354 -0.743490
v 0.012045 -1.257265 -0.744620
v -0.007543 -1.249355 -0.743490
v 0.264795 0.351039 -0.743490
v 0.272705 -0.023372 -0.744620
v 0.264795 -0.397784 -0.743490
v 0.063649 -0.397784 -1.169486
v 0.064779 -0.023372 -1.177396
v 0.063649 0.351039 -1.169486
v -0.240706 -0.397784 -0.743490
v -0.248616 -0.023372 -0.744620
v -0.240706 0.351039 -0.743490
v -0.039560 0.351039 -1.169486
v -0.040690 -0.023372 -1.177396
v -0.039560 -0.397784 -1.169486
v 0.033009 -0.399161 -1.197030
v 0.012045 -0.399620 -1.206212
v -0.008920 -0.399161 -1.197030
v 0.033468 -0.023373 -1.206212
v 0.012045 -0.023373 -1.215817
v -0.009379 -0.023373 -1.206212
v 0.033009 0.352416 -1.197030
v 0.012045 0.352875 -1.206212
v -0.008920 0.352416 -1.197030
v 0.033009 -1.276899 0.024710
v 0.012045 -1.286080 0.025169
v -0.008920 -1.276899 0.024710
v 0.033468 -1.286080 -0.242184
v 0.012045 -1.295686 -0.242184
v -0.009379 -1.286080 -0.242184
v 0.033009 -1.276899 -0.509079
v 0.012045 -1.286080 -0.509538
v -0.008920 -1.276899 -0.509079
v -0.268250 -0.399161 0.024710
v -0.277432 -0.023372 0.025169
v -0.268250 0.352416 0.024710
v -0.277432 -0.399620 -0.242184
v -0.287037 -0.023373 -0.242184
v -0.277432 0.352875 -0.242184
v -0.268250 -0.399161 -0.509079
v -0.277432 -0.023372 -0.509538
v -0.268250 0.352416 -0.509079
v 0.033009 1.230154 -0.509079
v 0.012045 1.239336 -0.509538
v -0.008920 1.230154 -0.509079
v 0.033468 1.239335 -0.242184
v 0.012045 1.248941 -0.242184
v -0.009379 1.239335 -0.242184
v 0.033009 1.230154 0.024710
v 0.012045 1.239335 0.025169
v -0.008920 1.230154 0.024710
v 0.033009 0.352416 0.712662
v 0.012045 0.352875 0.721843
v -0.008920 0.352416 0.712662
v 0.033468 -0.023372 0.721843
v 0.012045 -0.023373 0.731448
v -0.009379 -0.023372 0.721843
v 0.033009 -0.399161 0.712662
v 0.012045 -0.399620 0.721843
v -0.008920 -0.399161 0.712662
v 0.120528 0.997515 -0.983059
v 0.173704 0.894236 -0.903316
v 0.136648 0.886612 -1.010826
v 0.093939 0.894236 -1.071498
v 0.088286 1.030438 -1.010826
v 0.093939 1.101568 -0.903316
v 0.136648 1.030438 -0.896297
v -0.096438 0.997515 -0.983059
v -0.069850 0.894236 -1.071498
v -0.112559 0.886612 -1.010826
v -0.149615 0.894236 -0.903316
v -0.112559 1.030438 -0.896297
v -0.069850 1.101568 -0.903316
v -0.064197 1.030438 -1.010826
v 0.120528 0.997515 0.498690
v 0.173704 0.894236 0.418948
v 0.136648 1.030438 0.411928
v 0.093939 1.101568 0.418948
v 0.088286 1.030438 0.526457
v 0.093939 0.894236 0.587130
v 0.136648 0.886612 0.526457
v -0.096438 0.997515 0.498690
v -0.149615 0.894236 0.418948
v -0.112559 0.886612 0.526457
v -0.069850 0.894236 0.587130
v -0.064197 1.030438 0.526457
v -0.069850 1.101568 0.418948
v -0.112559 1.030438 0.411928
v 0.120528 -1.044260 -0.983059
v 0.173704 -0.940981 -0.903316
v 0.136648 -1.077183 -0.896297
v 0.093939 -1.148313 -0.903316
v 0.088286 -1.077183 -1.010826
v 0.093939 -0.940981 -1.071498
v 0.136648 -0.933357 -1.010826
v -0.096438 -1.044260 -0.983059
v -0.149615 -0.940981 -0.903316
v -0.112559 -0.933357 -1.010826
v -0.069850 -0.940981 -1.071498
v -0.064197 -1.077183 -1.010826
v -0.069850 -1.148314 -0.903316
v -0.112559 -1.077183 -0.896297
v 0.120528 -1.044261 0.498690
v 0.173704 -0.940981 0.418948
v 0.136648 -0.933357 0.526457
v 0.093939 -0.940982 0.587130
v 0.088286 -1.077183 0.526457
v 0.093939 -1.148314 0.418948
v 0.136648 -1.077183 0.411928
v -0.096438 -1.044260 0.498690
v -0.149615 -0.940981 0.418948
v -0.112559 -1.077183 0.411928
v -0.069850 -1.148313 0.418948
v -0.064197 -1.077183 0.526457
v -0.069850 -0.940981 0.587130
v -0.112559 -0.933357 0.526457
v 0.220294 0.911247 0.021344
v 0.226209 0.913454 -0.242184
v 0.220294 0.911247 -0.505712
v 0.165870 1.063133 0.020273
v 0.169684 1.066947 -0.242184
v 0.165870 1.063133 -0.504641
v 0.110293 1.153040 0.021344
v 0.112500 1.158955 -0.242184
v 0.110293 1.153040 -0.505712
v 0.029642 0.911247 -1.121472
v 0.012045 0.913454 -1.127387
v -0.005553 0.911247 -1.121472
v 0.028571 1.063133 -1.042455
v 0.012045 1.066947 -1.046269
v -0.004482 1.063133 -1.042455
v 0.029642 1.153040 -0.920125
v 0.012045 1.158955 -0.922332
v -0.005553 1.153040 -0.920125
v -0.196205 0.911247 -0.505712
v -0.202120 0.913454 -0.242184
v -0.196205 0.911247 0.021344
v -0.141781 1.063133 -0.504641
v -0.145595 1.066947 -0.242184
v -0.141781 1.063133 0.020273
v -0.086203 1.153040 -0.505712
v -0.088410 1.158955 -0.242184
v -0.086203 1.153040 0.021344
v -0.005553 0.911247 0.637103
v 0.012045 0.913454 0.643018
v 0.029642 0.911247 0.637103
v -0.004482 1.063133 0.558086
v 0.012045 1.066947 0.561900
v 0.028571 1.063133 0.558086
v -0.005553 1.153040 0.435756
v 0.012045 1.158955 0.437963
v 0.029642 1.153040 0.435756
v 0.220294 -0.395794 0.435756
v 0.226209 -0.023372 0.437963
v 0.220294 0.349049 0.435756
v 0.165870 -0.394723 0.558086
v 0.169684 -0.023372 0.561900
v 0.165870 0.347978 0.558086
v 0.110293 -0.395795 0.637103
v 0.112500 -0.023372 0.643018
v 0.110292 0.349049 0.637103
v -0.196205 0.349050 0.435756
v -0.202120 -0.023372 0.437963
v -0.196205 -0.395795 0.435756
v -0.141781 0.347978 0.558086
v -0.145595 -0.023372 0.561900
v -0.141781 -0.394723 0.558086
v -0.086203 0.349050 0.637103
v -0.088410 -0.023372 0.643018
v -0.086203 -0.395794 0.637103
v -0.005553 -1.199785 0.435756
v 0.012045 -1.205700 0.437963
v 0.029642 -1.199785 0.435756
v -0.004482 -1.109879 0.558086
v 0.012045 -1.113692 0.561900
v 0.028571 -1.109879 0.558086
v -0.005553 -0.957992 0.637103
v 0.012045 -0.960199 0.643018
v 0.029642 -0.957991 0.637103
v 0.220294 -0.957992 -0.505712
v 0.226209 -0.960199 -0.242184
v 0.220294 -0.957992 0.021344
v 0.165870 -1.109879 -0.504641
v 0.169684 -1.113692 -0.242184
v 0.165870 -1.109878 0.020273
v 0.110293 -1.199785 -0.505712
v 0.112500 -1.205700 -0.242184
v 0.110293 -1.199785 0.021344
v -0.196205 -0.957991 0.021344
v -0.202120 -0.960199 -0.242184
v -0.196205 -0.957992 -0.505712
v -0.141781 -1.109879 0.020273
v -0.145595 -1.113692 -0.242184
v -0.141781 -1.109878 -0.504641
v -0.086203 -1.199785 0.021344
v -0.088410 -1.205700 -0.242184
v -0.086203 -1.199785 -0.505712
v -0.005553 -0.957991 -1.121472
v 0.012045 -0.960199 -1.127387
v 0.029642 -0.957992 -1.121472
v -0.004482 -1.109879 -1.042455
v 0.012045 -1.113692 -1.046269
v 0.028571 -1.109878 -1.042455
v -0.005553 -1.199785 -0.920125
v 0.012045 -1.205700 -0.922332
v 0.029642 -1.199785 -0.920125
v 0.220294 0.349050 -0.920125
v 0.226209 -0.023372 -0.922332
v 0.220294 -0.395794 -0.920125
v 0.165870 0.347978 -1.042455
v 0.169684 -0.023372 -1.046269
v 0.165870 -0.394723 -1.042455
v 0.110293 0.349050 -1.121472
v 0.112500 -0.023372 -1.127387
v 0.110293 -0.395794 -1.121472
v -0.196205 -0.395794 -0.920125
v -0.202120 -0.023372 -0.922332
v -0.196205 0.349050 -0.920125
v -0.141781 -0.394723 -1.042455
v -0.145595 -0.023372 -1.046269
v -0.141781 0.347978 -1.042455
v -0.086203 -0.395795 -1.121472
v -0.088410 -0.023372 -1.127387
v -0.086203 0.349049 -1.121472
v 0.292339 0.352416 0.024710
v 0.301521 -0.023373 0.025169
v 0.292339 -0.399161 0.024710
v 0.301521 0.352875 -0.242184
v 0.311126 -0.023373 -0.242184
v 0.301521 -0.399620 -0.242184
v 0.292339 0.352416 -0.509079
v 0.301521 -0.023373 -0.509538
v 0.292339 -0.399161 -0.509079
v 0.013088 0.848019 -1.006319
v -0.016928 0.845467 -1.007811
v -0.045791 0.837908 -1.012229
v -0.072391 0.825633 -1.019403
v -0.095706 0.809113 -1.029059
v -0.114841 0.788984 -1.040824
v -0.129059 0.766019 -1.054246
v -0.137814 0.741100 -1.068811
v -0.140770 0.715185 -1.083957
v -0.137814 0.689271 -1.099104
v -0.129059 0.664352 -1.113668
v -0.114841 0.641387 -1.127091
v -0.095706 0.621257 -1.138856
v -0.072391 0.604738 -1.148511
v -0.045791 0.592463 -1.155686
v -0.016928 0.584904 -1.160103
v 0.013088 0.582351 -1.161595
v 0.043105 0.584904 -1.160103
v 0.071968 0.592463 -1.155686
v 0.098568 0.604738 -1.148511
v 0.121883 0.621257 -1.138856
v 0.141018 0.641387 -1.127091
v 0.155236 0.664352 -1.113668
v 0.163991 0.689271 -1.099104
v 0.166947 0.715185 -1.083957
v 0.163991 0.741100 -1.068811
v 0.155236 0.766019 -1.054246
v 0.141018 0.788984 -1.040824
v 0.121883 0.809113 -1.029059
v 0.098568 0.825633 -1.019403
v 0.071968 0.837908 -1.012229
v 0.043105 0.845467 -1.007811
v 0.028914 0.888474 -1.380443
v 0.013089 0.781307 -0.892180
v -0.016928 0.778755 -0.893671
v -0.045791 0.771196 -0.898089
v -0.072391 0.758921 -0.905264
v -0.095706 0.742401 -0.914919
v -0.114841 0.722272 -0.926684
v -0.129059 0.699307 -0.940107
v -0.137814 0.674388 -0.954671
v -0.140770 0.648474 -0.969818
v -0.137814 0.622559 -0.984964
v -0.129059 0.597640 -0.999529
v -0.114841 0.574675 -1.012951
v -0.095706 0.554546 -1.024716
v -0.072391 0.538026 -1.034372
v -0.045791 0.525751 -1.041546
v -0.016928 0.518192 -1.045964
v 0.013089 0.515640 -1.047456
v 0.043105 0.518192 -1.045964
v 0.071968 0.525751 -1.041546
v 0.098568 0.538026 -1.034372
v 0.121883 0.554546 -1.024716
v 0.141018 0.574675 -1.012951
v 0.155236 0.597640 -0.999529
v 0.163991 0.622559 -0.984964
v 0.166947 0.648474 -0.969818
v 0.163991 0.674388 -0.954671
v 0.155236 0.699307 -0.940107
v 0.141018 0.722272 -0.926684
v 0.121883 0.742401 -0.914919
v 0.098568 0.758921 -0.905264
v 0.071968 0.771196 -0.898089
v 0.043105 0.778755 -0.893671
vn 0.9805 0.1169 -0.1578
vn 0.6690 0.1027 -0.7361
vn 0.6739 0.7256 -0.1390
vn -0.6690 0.1027 -0.7361
vn -0.9805 0.1169 -0.1578
vn -0.6739 0.7256 -0.1390
vn 0.9805 0.1169 0.1578
vn 0.6739 0.7256 0.1390
vn 0.6690 0.1027 0.7361
vn -0.9805 0.1169 0.1578
vn -0.6690 0.1027 0.7361
vn -0.6739 0.7256 0.1390
vn 0.9805 -0.1169 -0.1578
vn 0.6739 -0.7256 -0.1390
vn 0.6690 -0.1027 -0.7361
vn -0.9805 -0.1169 -0.1579
vn -0.6690 -0.1027 -0.7361
vn -0.6739 -0.7256 -0.1390
vn 0.9805 -0.1169 0.1578
vn 0.6690 -0.1027 0.7361
vn 0.6739 -0.7256 0.1390
vn -0.9805 -0.1169 0.1578
vn -0.6739 -0.7256 0.1390
vn -0.6690 -0.1027 0.7361
vn 0.7843 0.6088 -0.1194
vn 0.9019 0.4177 -0.1098
vn 0.9631 0.2369 -0.1274
vn 0.9497 0.0946 -0.2984
vn 0.8739 0.0831 -0.4790
vn 0.7612 0.0890 -0.6424
vn 0.6244 0.2552 -0.7383
vn 0.5943 0.5245 -0.6097
vn 0.6290 0.6981 -0.3420
vn -0.6290 0.6981 -0.3420
vn -0.5943 0.5245 -0.6097
vn -0.6244 0.2552 -0.7383
vn -0.7612 0.0890 -0.6424
vn -0.8739 0.0831 -0.4790
vn -0.9497 0.0946 -0.2984
vn -0.9631 0.2369 -0.1274
vn -0.9019 0.4177 -0.1098
vn -0.7843 0.6088 -0.1194
vn 0.7612 0.0890 0.6424
vn 0.8739 0.0831 0.4790
vn 0.9497 0.0946 0.2984
vn 0.9631 0.2369 0.1274
vn 0.9019 0.4177 0.1098
vn 0.7843 0.6088 0.1194
vn 0.6290 0.6981 0.3420
vn 0.5943 0.5245 0.6097
vn 0.6244 0.2552 0.7383
vn -0.7843 0.6088 0.1194
vn -0.9019 0.4177 0.1098
vn -0.9631 0.2369 0.1274
vn -0.9497 0.0946 0.2984
vn -0.8739 0.0831 0.4790
vn -0.7612 0.0890 0.6424
vn -0.6244 0.2552 0.7383
vn -0.5943 0.5245 0.6097
vn -0.6290 0.6981 0.3420
vn 0.7612 -0.0890 -0.6424
vn 0.8739 -0.0831 -0.4790
vn 0.9497 -0.0946 -0.2984
vn 0.9631 -0.2369 -0.1274
vn 0.9019 -0.4177 -0.1098
vn 0.7843 -0.6088 -0.1194
vn 0.6290 -0.6981 -0.3420
vn 0.5943 -0.5245 -0.6097
vn 0.6244 -0.2552 -0.7383
vn -0.7843 -0.6088 -0.1194
vn -0.9019 -0.4177 -0.1098
vn -0.9631 -0.2369 -0.1274
vn -0.9497 -0.0946 -0.2984
vn -0.8739 -0.0831 -0.4790
vn -0.7612 -0.0890 -0.6424
vn -0.6244 -0.2552 -0.7383
vn -0.5943 -0.5245 -0.6097
vn -0.6290 -0.6981 -0.3420
vn 0.7843 -0.6088 0.1194
vn 0.9019 -0.4177 0.1098
vn 0.9631 -0.2369 0.1274
vn 0.9497 -0.0946 0.2984
vn 0.8739 -0.0831 0.4790
vn 0.7612 -0.0890 0.6424
vn 0.6244 -0.2552 0.7383
vn 0.5943 -0.5245 0.6097
vn 0.6290 -0.6981 0.3420
vn -0.7612 -0.0890 0.6424
vn -0.8739 -0.0831 0.4790
vn -0.9497 -0.0946 0.2984
vn -0.9631 -0.2369 0.1274
vn -0.9019 -0.4177 0.1098
vn -0.7843 -0.6088 0.1194
vn -0.6290 -0.6981 0.3420
vn -0.5943 -0.5245 0.6097
vn -0.6244 -0.2552 0.7383
vn 0.9889 0.1338 0.0642
vn 0.9902 0.1396 -0.0000
vn 0.9889 0.1338 -0.0642
vn 0.6977 0.7144 -0.0531
vn 0.7054 0.7088 -0.0000
vn 0.6977 0.7144 0.0531
vn 0.5127 0.1243 -0.8495
vn -0.0000 0.1465 -0.9892
vn -0.5127 0.1243 -0.8495
vn -0.5112 0.8428 -0.1683
vn -0.0000 0.9801 -0.1985
vn 0.5112 0.8428 -0.1683
vn -0.9889 0.1338 -0.0642
vn -0.9902 0.1396 -0.0000
vn -0.9889 0.1338 0.0642
vn -0.6977 0.7144 0.0531
vn -0.7054 0.7088 -0.0000
vn -0.6977 0.7144 -0.0531
vn -0.5127 0.1243 0.8495
vn -0.0000 0.1465 0.9892
vn 0.5127 0.1243 0.8495
vn 0.5112 0.8428 0.1683
vn -0.0000 0.9801 0.1985
vn -0.5112 0.8428 0.1683
vn 0.9827 -0.0456 0.1793
vn 0.9825 -0.0000 0.1865
vn 0.9827 0.0456 0.1793
vn 0.6930 0.0379 0.7200
vn 0.7002 -0.0000 0.7140
vn 0.6930 -0.0379 0.7200
vn -0.9827 0.0456 0.1793
vn -0.9825 -0.0000 0.1865
vn -0.9827 -0.0456 0.1793
vn -0.6930 -0.0379 0.7200
vn -0.7002 -0.0000 0.7140
vn -0.6930 0.0379 0.7200
vn -0.5112 -0.8428 0.1683
vn -0.0000 -0.9801 0.1985
vn 0.5112 -0.8428 0.1683
vn 0.5127 -0.1243 0.8495
vn -0.0000 -0.1465 0.9892
vn -0.5127 -0.1243 0.8495
vn 0.9889 -0.1338 -0.0642
vn 0.9902 -0.1396 -0.0000
vn 0.9889 -0.1338 0.0642
vn 0.6977 -0.7144 0.0531
vn 0.7054 -0.7088 -0.0000
vn 0.6977 -0.7144 -0.0531
vn -0.9889 -0.1338 0.0642
vn -0.9902 -0.1396 -0.0000
vn -0.9889 -0.1338 -0.0642
vn -0.6977 -0.7144 -0.0531
vn -0.7054 -0.7088 -0.0000
vn -0.6977 -0.7144 0.0531
vn -0.5127 -0.1243 -0.8495
vn -0.0000 -0.1465 -0.9892
vn 0.5127 -0.1243 -0.8495
vn 0.5112 -0.8428 -0.1683
vn -0.0000 -0.9801 -0.1985
vn -0.5112 -0.8428 -0.1683
vn 0.9827 0.0456 -0.1793
vn 0.9825 -0.0000 -0.1865
vn 0.9827 -0.0456 -0.1793
vn 0.6930 -0.0379 -0.7200
vn 0.7002 -0.0000 -0.7140
vn 0.6930 0.0379 -0.7200
vn -0.9827 -0.0456 -0.1793
vn -0.9825 -0.0000 -0.1865
vn -0.9827 0.0456 -0.1793
vn -0.6930 0.0379 -0.7200
vn -0.7002 -0.0000 -0.7140
vn -0.6930 -0.0379 -0.7200
vn 0.5404 -0.0465 -0.8401
vn -0.0000 -0.0560 -0.9984
vn -0.5404 -0.0465 -0.8401
vn 0.5489 -0.0000 -0.8359
vn -0.0000 -0.0000 -1.0000
vn -0.5489 -0.0000 -0.8359
vn 0.5404 0.0465 -0.8401
vn -0.0000 0.0560 -0.9984
vn -0.5404 0.0465 -0.8401
vn 0.5402 -0.8389 0.0658
vn -0.0000 -0.9969 0.0782
vn -0.5402 -0.8389 0.0658
vn 0.5486 -0.8361 -0.0000
vn -0.0000 -1.0000 -0.0000
vn -0.5486 -0.8361 -0.0000
vn 0.5402 -0.8389 -0.0658
vn -0.0000 -0.9969 -0.0782
vn -0.5402 -0.8389 -0.0658
vn -0.9958 -0.0532 0.0744
vn -0.9970 -0.0000 0.0780
vn -0.9958 0.0532 0.0744
vn -0.9984 -0.0559 -0.0000
vn -1.0000 -0.0000 -0.0000
vn -0.9984 0.0559 -0.0000
vn -0.9958 -0.0532 -0.0744
vn -0.9970 -0.0000 -0.0780
vn -0.9958 0.0532 -0.0744
vn 0.5402 0.8389 -0.0658
vn -0.0000 0.9969 -0.0782
vn -0.5402 0.8389 -0.0658
vn 0.5486 0.8361 -0.0000
vn -0.0000 1.0000 -0.0000
vn -0.5486 0.8361 -0.0000
vn 0.5402 0.8389 0.0658
vn -0.0000 0.9969 0.0782
vn -0.5402 0.8389 0.0658
vn 0.5404 0.0465 0.8401
vn -0.0000 0.0560 0.9984
vn -0.5404 0.0465 0.8401
vn 0.5489 -0.0000 0.8359
vn -0.0000 -0.0000 1.0000
vn -0.5489 -0.0000 0.8359
vn 0.5404 -0.0465 0.8401
vn -0.0000 -0.0560 0.9984
vn -0.5404 -0.0465 0.8401
vn 0.8487 0.3394 -0.4056
vn 0.9469 0.1982 -0.2531
vn 0.8743 0.1761 -0.4524
vn 0.7368 0.2127 -0.6418
vn 0.7132 0.4561 -0.5323
vn 0.7549 0.5890 -0.2884
vn 0.8906 0.3898 -0.2345
vn -0.8487 0.3394 -0.4056
vn -0.7368 0.2127 -0.6418
vn -0.8743 0.1761 -0.4524
vn -0.9469 0.1982 -0.2531
vn -0.8906 0.3898 -0.2345
vn -0.7549 0.5890 -0.2884
vn -0.7132 0.4561 -0.5323
vn 0.8487 0.3394 0.4056
vn 0.9469 0.1982 0.2531
vn 0.8906 0.3898 0.2345
vn 0.7549 0.5890 0.2884
vn 0.7132 0.4561 0.5323
vn 0.7368 0.2127 0.6418
vn 0.8743 0.1761 0.4524
vn -0.8487 0.3394 0.4056
vn -0.9469 0.1982 0.2531
vn -0.8743 0.1761 0.4524
vn -0.7368 0.2127 0.6418
vn -0.7132 0.4561 0.5323
vn -0.7549 0.5890 0.2884
vn -0.8906 0.3898 0.2345
vn 0.8487 -0.3394 -0.4056
vn 0.9469 -0.1982 -0.2531
vn 0.8906 -0.3898 -0.2345
vn 0.7549 -0.5890 -0.2884
vn 0.7132 -0.4561 -0.5323
vn 0.7368 -0.2127 -0.6418
vn 0.8743 -0.1761 -0.4524
vn -0.8487 -0.3394 -0.4056
vn -0.9469 -0.1982 -0.2531
vn -0.8743 -0.1761 -0.4524
vn -0.7368 -0.2127 -0.6418
vn -0.7132 -0.4561 -0.5323
vn -0.7549 -0.5890 -0.2884
vn -0.8906 -0.3898 -0.2345
vn 0.8487 -0.3394 0.4056
vn 0.9469 -0.1982 0.2531
vn 0.8743 -0.1761 0.4524
vn 0.7368 -0.2127 0.6418
vn 0.7132 -0.4561 0.5323
vn 0.7549 -0.5890 0.2884
vn 0.8906 -0.3898 0.2345
vn -0.8487 -0.3394 0.4056
vn -0.9469 -0.1982 0.2531
vn -0.8906 -0.3898 0.2345
vn -0.7549 -0.5890 0.2884
vn -0.7132 -0.4561 0.5323
vn -0.7368 -0.2127 0.6418
vn -0.8743 -0.1761 0.4524
vn 0.9639 0.2613 0.0508
vn 0.9631 0.2692 -0.0000
vn 0.9639 0.2613 -0.0508
vn 0.8998 0.4341 0.0431
vn 0.8984 0.4391 -0.0000
vn 0.8998 0.4341 -0.0431
vn 0.7925 0.6082 0.0450
vn 0.7944 0.6074 -0.0000
vn 0.7925 0.6082 -0.0450
vn 0.4640 0.2983 -0.8341
vn -0.0000 0.3393 -0.9407
vn -0.4640 0.2983 -0.8341
vn 0.4301 0.5892 -0.6840
vn -0.0000 0.6544 -0.7561
vn -0.4301 0.5892 -0.6840
vn 0.4614 0.7956 -0.3927
vn -0.0000 0.8985 -0.4391
vn -0.4614 0.7956 -0.3927
vn -0.9639 0.2613 -0.0508
vn -0.9631 0.2692 -0.0000
vn -0.9639 0.2613 0.0508
vn -0.8998 0.4341 -0.0431
vn -0.8984 0.4391 -0.0000
vn -0.8998 0.4341 0.0431
vn -0.7925 0.6082 -0.0450
vn -0.7944 0.6074 -0.0000
vn -0.7925 0.6082 0.0450
vn -0.4640 0.2983 0.8341
vn -0.0000 0.3393 0.9407
vn 0.4640 0.2983 0.8341
vn -0.4301 0.5892 0.6840
vn -0.0000 0.6544 0.7561
vn 0.4301 0.5892 0.6840
vn -0.4614 0.7956 0.3927
vn -0.0000 0.8985 0.4391
vn 0.4614 0.7956 0.3927
vn 0.9448 -0.0365 0.3257
vn 0.9425 -0.0000 0.3343
vn 0.9448 0.0365 0.3257
vn 0.8692 -0.0318 0.4935
vn 0.8673 -0.0000 0.4978
vn 0.8692 0.0318 0.4935
vn 0.7698 -0.0333 0.6374
vn 0.7723 -0.0000 0.6353
vn 0.7698 0.0333 0.6374
vn -0.9448 0.0365 0.3257
vn -0.9425 -0.0000 0.3343
vn -0.9448 -0.0365 0.3257
vn -0.8692 0.0318 0.4935
vn -0.8673 -0.0000 0.4978
vn -0.8692 -0.0318 0.4935
vn -0.7698 0.0333 0.6374
vn -0.7723 -0.0000 0.6353
vn -0.7698 -0.0333 0.6374
vn -0.4614 -0.7956 0.3927
vn -0.0000 -0.8985 0.4391
vn 0.4614 -0.7956 0.3927
vn -0.4301 -0.5892 0.6840
vn -0.0000 -0.6544 0.7561
vn 0.4301 -0.5892 0.6840
vn -0.4640 -0.2983 0.8341
vn -0.0000 -0.3393 0.9407
vn 0.4640 -0.2983 0.8341
vn 0.9639 -0.2613 -0.0508
vn 0.9631 -0.2692 -0.0000
vn 0.9639 -0.2613 0.0508
vn 0.8998 -0.4341 -0.0431
vn 0.8984 -0.4391 -0.0000
vn 0.8998 -0.4341 0.0431
vn 0.7925 -0.6082 -0.0450
vn 0.7944 -0.6074 -0.0000
vn 0.7925 -0.6082 0.0450
vn -0.9639 -0.2613 0.0508
vn -0.9631 -0.2692 -0.0000
vn -0.9639 -0.2613 -0.0508
vn -0.8998 -0.4341 0.0431
vn -0.8984 -0.4391 -0.0000
vn -0.8998 -0.4341 -0.0431
vn -0.7925 -0.6082 0.0450
vn -0.7944 -0.6074 -0.0000
vn -0.7925 -0.6082 -0.0450
vn -0.4640 -0.2983 -0.8341
vn -0.0000 -0.3393 -0.9407
vn 0.4640 -0.2983 -0.8341
vn -0.4301 -0.5892 -0.6840
vn -0.0000 -0.6544 -0.7561
vn 0.4301 -0.5892 -0.6840
vn -0.4614 -0.7956 -0.3927
vn -0.0000 -0.8985 -0.4391
vn 0.4614 -0.7956 -0.3927
vn 0.9448 0.0365 -0.3257
vn 0.9425 -0.0000 -0.3343
vn 0.9448 -0.0365 -0.3257
vn 0.8692 0.0318 -0.4935
vn 0.8673 -0.0000 -0.4978
vn 0.8692 -0.0318 -0.4935
vn 0.7698 0.0333 -0.6374
vn 0.7723 -0.0000 -0.6353
vn 0.7698 -0.0333 -0.6374
vn -0.9448 -0.0365 -0.3257
vn -0.9425 -0.0000 -0.3343
vn -0.9448 0.0365 -0.3257
vn -0.8692 -0.0318 -0.4935
vn -0.8673 -0.0000 -0.4978
vn -0.8692 0.0318 -0.4935
vn -0.7698 -0.0333 -0.6374
vn -0.7723 -0.0000 -0.6353
vn -0.7698 0.0333 -0.6374
vn 0.9958 0.0532 0.0744
vn 0.9970 -0.0000 0.0780
vn 0.9958 -0.0532 0.0744
vn 0.9984 0.0559 -0.0000
vn 1.0000 -0.0000 -0.0000
vn 0.9984 -0.0559 -0.0000
vn 0.9958 0.0532 -0.0744
vn 0.9970 -0.0000 -0.0780
vn 0.9958 -0.0532 -0.0744
vn -0.0012 0.9489 0.3155
vn -0.1918 0.9337 0.3024
vn -0.3748 0.8866 0.2710
vn -0.5432 0.8096 0.2224
vn -0.6905 0.7058 0.1586
vn -0.8112 0.5790 0.0820
vn -0.9008 0.4343 -0.0045
vn -0.9559 0.2770 -0.0976
vn -0.9745 0.1132 -0.1937
vn -0.9559 -0.0509 -0.2893
vn -0.9008 -0.2092 -0.3806
vn -0.8112 -0.3556 -0.4643
vn -0.6905 -0.4845 -0.5371
vn -0.5432 -0.5911 -0.5963
vn -0.3748 -0.6712 -0.6395
vn -0.1918 -0.7217 -0.6651
vn -0.0012 -0.7406 -0.6720
vn 0.1899 -0.7270 -0.6599
vn 0.3740 -0.6813 -0.6292
vn 0.5440 -0.6054 -0.5811
vn 0.6932 -0.5019 -0.5173
vn 0.8158 -0.3749 -0.4403
vn 0.9070 -0.2293 -0.3532
vn 0.9632 -0.0707 -0.2592
vn 0.9822 0.0947 -0.1621
vn 0.9632 0.2606 -0.0656
vn 0.9070 0.4203 0.0265
vn 0.8158 0.5677 0.1106
vn 0.6932 0.6970 0.1835
vn 0.5440 0.8034 0.2423
vn 0.3740 0.8826 0.2849
vn 0.1899 0.9317 0.3096
vn 0.0384 0.5042 -0.8627
vn -0.0000 0.2824 0.9593
vn -0.1420 0.2703 0.9522
vn -0.2785 0.2346 0.9313
vn -0.4044 0.1765 0.8974
vn -0.5147 0.0983 0.8517
vn -0.6052 0.0031 0.7961
vn -0.6725 -0.1055 0.7326
vn -0.7139 -0.2234 0.6636
vn -0.7279 -0.3460 0.5920
vn -0.7139 -0.4686 0.5203
vn -0.6725 -0.5865 0.4515
vn -0.6052 -0.6951 0.3879
vn -0.5147 -0.7904 0.3323
vn -0.4044 -0.8685 0.2866
vn -0.2785 -0.9266 0.2527
vn -0.1420 -0.9624 0.2317
vn -0.0000 -0.9744 0.2247
vn 0.1420 -0.9624 0.2318
vn 0.2785 -0.9266 0.2527
vn 0.4044 -0.8685 0.2866
vn 0.5147 -0.7904 0.3323
vn 0.6052 -0.6951 0.3879
vn 0.6725 -0.5865 0.4515
vn 0.7139 -0.4686 0.5203
vn 0.7279 -0.3460 0.5920
vn 0.7139 -0.2234 0.6637
vn 0.6725 -0.1055 0.7326
vn 0.6052 0.0031 0.7960
vn 0.5147 0.0983 0.8517
vn 0.4044 0.1765 0.8974
vn 0.2785 0.2346 0.9313
vn 0.1420 0.2704 0.9522
vt 0.500156 0.832330
vt 0.501736 0.876602
vt 0.500217 0.876101
vt 0.504593 0.832590
vt 0.501248 0.833970
vt 0.500149 0.921975
vt 0.504514 0.921991
vt 0.501194 0.922038
vt 0.500000 0.781325
vt 0.500000 0.828163
vt 0.500054 0.794541
vt 0.501293 0.794603
vt 0.500434 0.797345
vt 0.500000 0.781325
vt 0.513979 0.831089
vt 0.506275 0.876224
vt 0.514305 0.921960
vt 0.500000 0.968675
vt 0.500000 0.968675
vt 0.500000 0.968675
vt 0.500000 0.968675
vt 0.500000 0.921838
vt 0.500000 0.875000
vt 0.500000 0.587538
vt 0.492401 0.625000
vt 0.494402 0.586301
vt 0.507599 0.625000
vt 0.500000 0.625000
vt 0.500000 0.662462
vt 0.494402 0.663699
vt 0.498439 0.551775
vt 0.482054 0.583805
vt 0.500000 0.540681
vt 0.500000 0.554102
vt 0.505598 0.586301
vt 0.501561 0.551775
vt 0.517946 0.583805
vt 0.521712 0.625000
vt 0.505598 0.663699
vt 0.517946 0.666195
vt 0.501561 0.698225
vt 0.500000 0.695898
vt 0.498439 0.698226
vt 0.482054 0.666195
vt 0.500000 0.709319
vt 0.478288 0.625000
vt 0.704284 0.582841
vt 0.750431 0.625000
vt 0.704724 0.625000
vt 0.796875 0.582841
vt 0.750296 0.582841
vt 0.704284 0.667160
vt 0.796875 0.667160
vt 0.750296 0.667159
vt 0.656325 0.540681
vt 0.659880 0.582841
vt 0.703163 0.540681
vt 0.796838 0.540681
vt 0.750000 0.540681
vt 0.843675 0.540681
vt 0.843675 0.582841
vt 0.796891 0.625000
vt 0.843675 0.667160
vt 0.843675 0.709319
vt 0.796838 0.709319
vt 0.750000 0.709319
vt 0.703163 0.709319
vt 0.656325 0.709319
vt 0.659880 0.667159
vt 0.660634 0.625000
vt 0.502428 0.090432
vt 0.500267 0.125356
vt 0.500304 0.087513
vt 0.507401 0.126624
vt 0.502134 0.125891
vt 0.501298 0.162573
vt 0.500162 0.163828
vt 0.500289 0.055577
vt 0.500000 0.082841
vt 0.500000 0.040681
vt 0.502315 0.060324
vt 0.508219 0.091684
vt 0.507813 0.062103
vt 0.519622 0.092052
vt 0.518663 0.126933
vt 0.504734 0.163779
vt 0.514160 0.165036
vt 0.501293 0.198195
vt 0.500434 0.195898
vt 0.500054 0.198247
vt 0.500000 0.167159
vt 0.500000 0.209319
vt 0.500000 0.125000
vt 0.500156 0.332192
vt 0.501736 0.375000
vt 0.500217 0.375000
vt 0.504630 0.332284
vt 0.501248 0.333769
vt 0.500156 0.417808
vt 0.504594 0.417554
vt 0.501248 0.416231
vt 0.500000 0.281325
vt 0.500000 0.328162
vt 0.500054 0.294541
vt 0.501302 0.294566
vt 0.500434 0.297345
vt 0.514332 0.329242
vt 0.506275 0.374928
vt 0.513979 0.418961
vt 0.500000 0.468675
vt 0.501293 0.455397
vt 0.500434 0.452655
vt 0.500054 0.455459
vt 0.500000 0.468675
vt 0.500000 0.421838
vt 0.500000 0.375000
vt 0.161373 0.707942
vt 0.150395 0.718965
vt 0.147725 0.708311
vt 0.156008 0.731853
vt 0.160638 0.722115
vt 0.145663 0.724031
vt 0.139187 0.712543
vt 0.182909 0.687239
vt 0.160561 0.686861
vt 0.183101 0.709068
vt 0.145581 0.688169
vt 0.156325 0.750000
vt 0.175280 0.736966
vt 0.148494 0.739830
vt 0.181395 0.724828
vt 0.125000 0.709319
vt 0.132831 0.719489
vt 0.135186 0.693387
vt 0.140662 0.729660
vt 0.529430 0.018147
vt 0.543131 0.031036
vt 0.528775 0.027885
vt 0.571165 0.037457
vt 0.551216 0.025969
vt 0.550612 0.041689
vt 0.531710 0.042058
vt 0.500000 0.000000
vt 0.511321 0.013034
vt 0.531250 0.010170
vt 0.514178 0.025172
vt 0.625000 0.040681
vt 0.593750 0.030511
vt 0.586299 0.056613
vt 0.562500 0.020341
vt 0.518519 0.062761
vt 0.535663 0.063139
vt 0.516457 0.040932
vt 0.558449 0.061831
vt 0.161373 0.542058
vt 0.150395 0.531036
vt 0.160638 0.527885
vt 0.145663 0.525969
vt 0.147725 0.541689
vt 0.139187 0.537457
vt 0.156008 0.518147
vt 0.182909 0.562761
vt 0.183101 0.540932
vt 0.160561 0.563139
vt 0.181395 0.525172
vt 0.125000 0.540681
vt 0.135186 0.556613
vt 0.140662 0.520341
vt 0.132831 0.530511
vt 0.145581 0.561831
vt 0.156325 0.500000
vt 0.148494 0.510170
vt 0.175280 0.513034
vt 0.570820 0.212745
vt 0.540799 0.219931
vt 0.548515 0.209796
vt 0.526090 0.232628
vt 0.550224 0.224285
vt 0.523205 0.224285
vt 0.524921 0.212745
vt 0.625000 0.209319
vt 0.586064 0.193621
vt 0.593750 0.219489
vt 0.556568 0.190040
vt 0.500000 0.250000
vt 0.531250 0.239830
vt 0.500000 0.239830
vt 0.562500 0.229659
vt 0.500000 0.219489
vt 0.529143 0.193570
vt 0.500000 0.229659
vt 0.344221 0.717274
vt 0.350649 0.722597
vt 0.341089 0.725035
vt 0.354579 0.725664
vt 0.354579 0.716871
vt 0.361490 0.717810
vt 0.344221 0.732358
vt 0.343675 0.709319
vt 0.324957 0.717047
vt 0.351506 0.709319
vt 0.320845 0.727144
vt 0.375000 0.709319
vt 0.367169 0.709319
vt 0.359338 0.729659
vt 0.367169 0.719489
vt 0.359338 0.709319
vt 0.343675 0.750000
vt 0.351506 0.739830
vt 0.325000 0.737255
vt 0.570820 0.780779
vt 0.540799 0.774351
vt 0.550224 0.770421
vt 0.524921 0.780779
vt 0.548515 0.783911
vt 0.523206 0.770421
vt 0.526090 0.763510
vt 0.625000 0.781325
vt 0.593750 0.773494
vt 0.586064 0.800000
vt 0.562500 0.765663
vt 0.529143 0.800062
vt 0.500000 0.773494
vt 0.556568 0.804155
vt 0.500000 0.750000
vt 0.500000 0.757831
vt 0.531250 0.757831
vt 0.500000 0.765663
vt 0.344221 0.532726
vt 0.350649 0.527403
vt 0.354579 0.533129
vt 0.344221 0.517642
vt 0.341089 0.524965
vt 0.354579 0.524336
vt 0.361490 0.532190
vt 0.343675 0.540681
vt 0.351506 0.540681
vt 0.324957 0.532953
vt 0.359338 0.540681
vt 0.343675 0.500000
vt 0.325000 0.512745
vt 0.351506 0.510170
vt 0.320845 0.522857
vt 0.375000 0.540681
vt 0.367169 0.530511
vt 0.367169 0.540681
vt 0.359338 0.520341
vt 0.570820 0.469221
vt 0.540799 0.475649
vt 0.548515 0.466089
vt 0.523205 0.479579
vt 0.550224 0.479579
vt 0.526090 0.486490
vt 0.524921 0.469221
vt 0.625000 0.468675
vt 0.586064 0.450000
vt 0.593750 0.476506
vt 0.556568 0.445845
vt 0.500000 0.500000
vt 0.531250 0.492169
vt 0.500000 0.484338
vt 0.500000 0.492169
vt 0.562500 0.484338
vt 0.500000 0.476506
vt 0.529143 0.449938
vt 0.159725 0.625000
vt 0.144507 0.590933
vt 0.159927 0.591902
vt 0.144507 0.659067
vt 0.144221 0.625000
vt 0.133706 0.587890
vt 0.133706 0.662111
vt 0.133439 0.625000
vt 0.182583 0.591810
vt 0.182474 0.625000
vt 0.159927 0.658099
vt 0.182583 0.658190
vt 0.125000 0.667160
vt 0.125000 0.625000
vt 0.125000 0.582841
vt 0.500846 0.010579
vt 0.500194 0.021643
vt 0.500106 0.010346
vt 0.505466 0.023697
vt 0.501555 0.022762
vt 0.500254 0.035315
vt 0.506878 0.039928
vt 0.502030 0.038400
vt 0.500000 0.000000
vt 0.500000 0.010170
vt 0.503315 0.011089
vt 0.500000 0.030511
vt 0.500000 0.020341
vt 0.593221 0.125057
vt 0.562685 0.090990
vt 0.592200 0.087897
vt 0.561555 0.160384
vt 0.563477 0.125456
vt 0.538049 0.092067
vt 0.534565 0.162227
vt 0.537855 0.126325
vt 0.625000 0.082841
vt 0.625000 0.125000
vt 0.592059 0.162275
vt 0.625000 0.167159
vt 0.500054 0.268963
vt 0.500000 0.245501
vt 0.500115 0.267376
vt 0.500000 0.245582
vt 0.500115 0.223967
vt 0.500007 0.223967
vt 0.500054 0.222656
vt 0.500000 0.263323
vt 0.500007 0.267376
vt 0.500000 0.245322
vt 0.500000 0.227320
vt 0.251638 0.538535
vt 0.288851 0.522405
vt 0.291095 0.535891
vt 0.212806 0.523720
vt 0.250551 0.522950
vt 0.291071 0.510940
vt 0.209136 0.511105
vt 0.250069 0.510708
vt 0.295205 0.555762
vt 0.252637 0.560371
vt 0.214169 0.539945
vt 0.214292 0.562109
vt 0.203162 0.500000
vt 0.250000 0.500000
vt 0.296838 0.500000
vt 0.593569 0.373410
vt 0.563621 0.327873
vt 0.593849 0.327964
vt 0.561578 0.413493
vt 0.563657 0.372688
vt 0.535715 0.328055
vt 0.534474 0.415610
vt 0.537128 0.373338
vt 0.625000 0.328162
vt 0.593750 0.281325
vt 0.625000 0.281325
vt 0.625000 0.375000
vt 0.592102 0.415863
vt 0.625000 0.421838
vt 0.517217 0.374422
vt 0.531250 0.281325
vt 0.562500 0.281325
vt 0.500136 0.526034
vt 0.500000 0.504418
vt 0.500000 0.504499
vt 0.499864 0.526034
vt 0.500000 0.527345
vt 0.500054 0.481037
vt 0.500115 0.482624
vt 0.500000 0.522680
vt 0.500000 0.540681
vt 0.500000 0.522680
vt 0.500000 0.504678
vt 0.500007 0.482624
vt 0.500000 0.486677
vt 0.500000 0.486677
vt 0.500000 0.504678
vt 0.380923 0.625000
vt 0.420049 0.667159
vt 0.381449 0.667048
vt 0.420049 0.582841
vt 0.419235 0.625000
vt 0.455233 0.667076
vt 0.455233 0.582924
vt 0.452994 0.625000
vt 0.340077 0.665879
vt 0.382756 0.709319
vt 0.339366 0.625000
vt 0.381449 0.582952
vt 0.340077 0.584121
vt 0.382756 0.540681
vt 0.421838 0.540681
vt 0.460919 0.540681
vt 0.460919 0.709319
vt 0.421838 0.709319
vt 0.619077 0.625000
vt 0.579951 0.582841
vt 0.618551 0.582841
vt 0.579951 0.667159
vt 0.580765 0.625000
vt 0.544767 0.582924
vt 0.544767 0.667076
vt 0.547006 0.625000
vt 0.617244 0.540681
vt 0.618551 0.667159
vt 0.617244 0.709319
vt 0.578163 0.709319
vt 0.539081 0.709319
vt 0.539081 0.540681
vt 0.578163 0.540681
vt 0.500054 0.768963
vt 0.500000 0.745501
vt 0.500115 0.767376
vt 0.500000 0.745582
vt 0.500136 0.723967
vt 0.499864 0.723967
vt 0.500000 0.722655
vt 0.500000 0.763324
vt 0.500007 0.767376
vt 0.500000 0.763323
vt 0.500000 0.745322
vt 0.500000 0.727320
vt 0.500000 0.727320
vt 0.500000 0.745322
vt 0.251638 0.711465
vt 0.212807 0.726280
vt 0.214169 0.710055
vt 0.288851 0.727595
vt 0.250551 0.727050
vt 0.209136 0.738895
vt 0.291071 0.739060
vt 0.250069 0.739292
vt 0.214292 0.687891
vt 0.252637 0.689629
vt 0.291095 0.714109
vt 0.295205 0.694238
vt 0.296838 0.750000
vt 0.250000 0.750000
vt 0.203162 0.750000
vt 0.593569 0.876590
vt 0.561578 0.836507
vt 0.592102 0.834137
vt 0.563621 0.922127
vt 0.563657 0.877312
vt 0.534474 0.834397
vt 0.535715 0.922052
vt 0.537127 0.876712
vt 0.625000 0.828163
vt 0.625000 0.875000
vt 0.593849 0.922036
vt 0.625000 0.921838
vt 0.593750 0.968675
vt 0.562500 0.968675
vt 0.531250 0.968675
vt 0.517217 0.875979
vt 0.214192 0.591482
vt 0.252838 0.625000
vt 0.214140 0.625000
vt 0.295945 0.587592
vt 0.252900 0.590327
vt 0.214192 0.658519
vt 0.295945 0.662408
vt 0.252900 0.659673
vt 0.295684 0.625000
vt 0.250000 0.490000
vt 0.250000 0.250000
vt 0.296822 0.485388
vt 0.341844 0.471731
vt 0.383337 0.449553
vt 0.419706 0.419706
vt 0.449553 0.383337
vt 0.471731 0.341844
vt 0.485388 0.296822
vt 0.490000 0.250000
vt 0.485388 0.203178
vt 0.471731 0.158156
vt 0.449553 0.116663
vt 0.419706 0.080294
vt 0.383337 0.050447
vt 0.341844 0.028269
vt 0.296822 0.014612
vt 0.250000 0.010000
vt 0.203178 0.014612
vt 0.158156 0.028269
vt 0.116663 0.050447
vt 0.080294 0.080294
vt 0.050447 0.116663
vt 0.028269 0.158156
vt 0.014612 0.203178
vt 0.010000 0.250000
vt 0.014612 0.296822
vt 0.028269 0.341844
vt 0.050447 0.383337
vt 0.080294 0.419706
vt 0.116663 0.449553
vt 0.158156 0.471731
vt 0.203178 0.485388
vt 0.796822 0.014612
vt 0.514612 0.203178
vt 0.703178 0.485388
vt 0.843675 0.625000
vt 0.625000 0.968675
vt 0.750000 0.490000
vt 0.796822 0.485388
vt 0.841844 0.471731
vt 0.883337 0.449553
vt 0.919706 0.419706
vt 0.949553 0.383337
vt 0.971731 0.341844
vt 0.985388 0.296822
vt 0.990000 0.250000
vt 0.985388 0.203178
vt 0.971731 0.158156
vt 0.949553 0.116663
vt 0.919706 0.080294
vt 0.883337 0.050447
vt 0.841844 0.028269
vt 0.750000 0.010000
vt 0.703178 0.014612
vt 0.658156 0.028269
vt 0.616663 0.050447
vt 0.580294 0.080294
vt 0.550447 0.116663
vt 0.528269 0.158156
vt 0.510000 0.250000
vt 0.514612 0.296822
vt 0.528269 0.341844
vt 0.550447 0.383337
vt 0.580294 0.419706
vt 0.616663 0.449553
vt 0.658156 0.471731
s 1
usemtl White
f 169/1/169 173/2/173 172/3/172
f 171/4/171 173/2/173 170/5/170
f 173/2/173 175/6/175 172/3/172
f 173/2/173 177/7/177 176/8/176
f 15/9/15 169/1/169 160/10/160
f 153/11/153 170/5/170 169/1/169
f 151/12/151 170/5/170 152/13/152
f 17/14/17 171/4/171 151/12/151
f 168/15/168 174/16/174 171/4/171
f 174/16/174 166/17/166 177/7/177
f 177/7/177 4/18/4 105/19/105
f 176/8/176 105/19/105 104/20/104
f 176/8/176 103/20/103 175/6/175
f 175/6/175 2/21/2 162/22/162
f 172/3/172 162/22/162 161/23/161
f 160/10/160 172/3/172 161/23/161
f 179/24/179 181/25/181 178/26/178
f 179/24/179 183/27/183 182/28/182
f 181/25/181 185/29/185 184/30/184
f 183/27/183 185/29/185 182/28/182
f 135/31/135 142/32/142 21/33/21
f 134/34/134 178/26/178 135/31/135
f 134/34/134 180/35/180 179/24/179
f 133/36/133 150/37/150 180/35/180
f 180/35/180 149/38/149 183/27/183
f 149/38/149 186/39/186 183/27/183
f 148/40/148 156/41/156 186/39/186
f 186/39/186 155/42/155 185/29/185
f 184/30/184 155/42/155 154/43/154
f 144/44/144 154/43/154 14/45/14
f 143/46/143 184/30/184 144/44/144
f 178/26/178 143/46/143 142/32/142
f 187/47/187 191/48/191 190/49/190
f 189/50/189 191/48/191 188/51/188
f 191/48/191 193/52/193 190/49/190
f 191/48/191 195/53/195 194/54/194
f 22/55/22 187/47/187 145/56/145
f 129/57/129 188/51/188 187/47/187
f 127/58/127 188/51/188 128/59/128
f 10/60/10 189/50/189 127/58/127
f 111/61/111 192/62/192 189/50/189
f 192/62/192 109/63/109 195/53/195
f 195/53/195 5/64/5 165/65/165
f 194/54/194 165/65/165 164/66/164
f 194/54/194 163/67/163 193/52/193
f 193/52/193 16/68/16 147/69/147
f 190/49/190 147/69/147 146/70/146
f 145/56/145 190/49/190 146/70/146
f 197/71/197 199/72/199 196/73/196
f 197/71/197 201/74/201 200/75/200
f 199/72/199 203/76/203 202/77/202
f 201/74/201 203/76/203 200/75/200
f 108/78/108 100/79/100 3/80/3
f 107/81/107 196/73/196 108/78/108
f 107/81/107 198/82/198 197/71/197
f 106/83/106 114/84/114 198/82/198
f 198/82/198 113/85/113 201/74/201
f 113/85/113 204/86/204 201/74/201
f 112/87/112 120/88/120 204/86/204
f 204/86/204 119/89/119 203/76/203
f 202/77/202 119/89/119 118/90/118
f 102/91/102 118/90/118 8/92/8
f 101/93/101 202/77/202 102/91/102
f 196/73/196 101/93/101 100/79/100
f 205/94/205 209/95/209 208/96/208
f 207/97/207 209/95/209 206/98/206
f 209/95/209 211/99/211 208/96/208
f 209/95/209 213/100/213 212/101/212
f 9/102/9 205/94/205 124/103/124
f 117/104/117 206/98/206 205/94/205
f 115/105/115 206/98/206 116/106/116
f 11/102/11 207/97/207 115/105/115
f 132/107/132 210/108/210 207/97/207
f 210/108/210 130/109/130 213/100/213
f 213/100/213 24/110/24 138/111/138
f 212/101/212 138/111/138 137/112/137
f 212/101/212 136/113/136 211/99/211
f 211/99/211 20/114/20 126/115/126
f 208/96/208 126/115/126 125/116/125
f 124/103/124 208/96/208 125/116/125
f 215/117/215 214/118/214 220/119/220
f 217/120/217 214/118/214 216/121/216
f 220/119/220 218/122/218 219/123/219
f 1/124/1 215/117/215 27/125/27
f 28/126/28 216/121/216 215/117/215
f 27/125/27 220/119/220 26/127/26
f 2/128/2 217/120/217 30/129/30
f 31/130/31 218/122/218 217/120/217
f 30/129/30 216/121/216 29/131/29
f 3/132/3 219/123/219 33/133/33
f 26/127/26 219/123/219 25/134/25
f 219/123/219 32/135/32 33/133/33
f 222/136/222 221/137/221 227/138/227
f 224/139/224 221/137/221 223/140/223
f 227/138/227 225/141/225 226/142/226
f 4/143/4 222/136/222 36/144/36
f 37/145/37 223/140/223 222/136/222
f 36/144/36 227/138/227 35/146/35
f 5/147/5 224/139/224 39/148/39
f 40/149/40 225/141/225 224/139/224
f 39/148/39 223/140/223 38/150/38
f 6/151/6 226/142/226 42/152/42
f 35/146/35 226/142/226 34/153/34
f 226/142/226 41/154/41 42/152/42
f 229/155/229 228/156/228 234/157/234
f 232/158/232 230/159/230 231/160/231
f 233/161/233 228/156/228 232/158/232
f 7/162/7 229/155/229 45/163/45
f 46/164/46 230/159/230 229/155/229
f 45/163/45 234/157/234 44/165/44
f 8/166/8 231/160/231 48/167/48
f 50/168/50 231/160/231 49/169/49
f 231/160/231 47/170/47 48/167/48
f 9/171/9 233/161/233 51/172/51
f 43/173/43 234/157/234 233/161/233
f 51/172/51 232/158/232 50/168/50
f 236/174/236 235/175/235 241/176/241
f 238/177/238 235/175/235 237/178/237
f 241/176/241 239/179/239 240/180/240
f 10/181/10 236/174/236 54/182/54
f 55/183/55 237/178/237 236/174/236
f 54/182/54 241/176/241 53/184/53
f 11/185/11 238/177/238 57/186/57
f 58/187/58 239/179/239 238/177/238
f 57/186/57 237/178/237 56/188/56
f 12/92/12 240/180/240 60/189/60
f 53/184/53 240/180/240 52/190/52
f 240/180/240 59/191/59 60/189/60
f 243/192/243 242/193/242 248/194/248
f 246/195/246 244/196/244 245/197/245
f 247/198/247 242/193/242 246/195/246
f 13/199/13 243/192/243 63/200/63
f 64/201/64 244/196/244 243/192/243
f 63/200/63 248/194/248 62/202/62
f 14/203/14 245/197/245 66/204/66
f 68/205/68 245/197/245 67/206/67
f 245/197/245 65/207/65 66/204/66
f 15/208/15 247/198/247 69/209/69
f 61/210/61 248/194/248 247/198/247
f 69/209/69 246/195/246 68/205/68
f 250/211/250 249/212/249 255/213/255
f 252/214/252 249/212/249 251/215/251
f 255/213/255 253/216/253 254/217/254
f 16/218/16 250/211/250 72/219/72
f 73/220/73 251/215/251 250/211/250
f 72/219/72 255/213/255 71/221/71
f 17/14/17 252/214/252 75/222/75
f 76/223/76 253/216/253 252/214/252
f 75/222/75 251/215/251 74/224/74
f 18/225/18 254/217/254 78/226/78
f 71/221/71 254/217/254 70/227/70
f 254/217/254 77/228/77 78/226/78
f 257/229/257 256/230/256 262/231/262
f 259/232/259 256/230/256 258/233/258
f 262/231/262 260/234/260 261/235/261
f 19/236/19 257/229/257 81/237/81
f 82/238/82 258/233/258 257/229/257
f 81/237/81 262/231/262 80/239/80
f 20/240/20 259/232/259 84/241/84
f 85/242/85 260/234/260 259/232/259
f 84/241/84 258/233/258 83/243/83
f 21/244/21 261/235/261 87/245/87
f 80/239/80 261/235/261 79/246/79
f 261/235/261 86/247/86 87/245/87
f 264/248/264 263/249/263 269/250/269
f 267/251/267 265/252/265 266/253/266
f 268/254/268 263/249/263 267/251/267
f 22/255/22 264/248/264 90/256/90
f 91/257/91 265/252/265 264/248/264
f 90/256/90 269/250/269 89/258/89
f 23/259/23 266/253/266 93/260/93
f 95/261/95 266/253/266 94/262/94
f 266/253/266 92/263/92 93/260/93
f 24/110/24 268/254/268 96/264/96
f 88/265/88 269/250/269 268/254/268
f 96/264/96 267/251/267 95/261/95
f 271/266/271 273/267/273 270/268/270
f 271/266/271 275/269/275 274/270/274
f 274/270/274 276/271/276 273/267/273
f 274/270/274 278/272/278 277/273/277
f 97/274/97 46/164/46 7/162/7
f 98/275/98 270/268/270 97/274/97
f 98/275/98 272/276/272 271/266/271
f 99/277/99 27/125/27 272/276/272
f 272/276/272 26/127/26 275/269/275
f 275/269/275 25/134/25 278/272/278
f 25/134/25 100/278/100 278/272/278
f 277/273/277 100/278/100 101/279/101
f 277/273/277 102/280/102 276/271/276
f 48/167/48 102/280/102 8/166/8
f 273/267/273 48/167/48 47/170/47
f 270/268/270 47/170/47 46/164/46
f 280/281/280 282/282/282 279/283/279
f 280/281/280 284/284/284 283/285/283
f 283/285/283 285/286/285 282/282/282
f 283/285/283 287/287/287 286/288/286
f 103/289/103 31/290/31 2/289/2
f 104/289/104 279/283/279 103/289/103
f 104/289/104 281/291/281 280/281/280
f 105/289/105 36/144/36 281/291/281
f 281/291/281 35/146/35 284/284/284
f 284/284/284 34/153/34 287/287/287
f 34/153/34 106/83/106 287/287/287
f 286/288/286 106/83/106 107/81/107
f 286/288/286 108/78/108 285/286/285
f 33/292/33 108/78/108 3/80/3
f 282/282/282 33/292/33 32/293/32
f 279/283/279 32/293/32 31/290/31
f 289/294/289 291/295/291 288/296/288
f 289/294/289 293/297/293 292/298/292
f 292/298/292 294/299/294 291/295/291
f 292/298/292 296/300/296 295/301/295
f 109/302/109 40/149/40 5/147/5
f 110/303/110 288/296/288 109/302/109
f 110/303/110 290/304/290 289/294/289
f 111/305/111 54/182/54 290/304/290
f 290/304/290 53/184/53 293/297/293
f 293/297/293 52/190/52 296/300/296
f 52/190/52 112/87/112 296/300/296
f 295/301/295 112/87/112 113/85/113
f 295/301/295 114/84/114 294/299/294
f 42/152/42 114/84/114 6/151/6
f 291/295/291 42/152/42 41/154/41
f 288/296/288 41/154/41 40/149/40
f 298/306/298 300/307/300 297/308/297
f 298/306/298 302/307/302 301/309/301
f 301/309/301 303/310/303 300/307/300
f 301/309/301 305/311/305 304/312/304
f 115/105/115 58/313/58 11/102/11
f 116/106/116 297/308/297 115/105/115
f 116/106/116 299/314/299 298/306/298
f 117/104/117 51/313/51 299/314/299
f 299/314/299 50/315/50 302/307/302
f 302/307/302 49/316/49 305/311/305
f 49/316/49 118/90/118 305/311/305
f 304/312/304 118/90/118 119/89/119
f 304/312/304 120/88/120 303/310/303
f 60/316/60 120/88/120 12/92/12
f 300/307/300 60/316/60 59/315/59
f 297/308/297 59/315/59 58/313/58
f 307/317/307 309/318/309 306/319/306
f 307/317/307 311/320/311 310/321/310
f 310/321/310 312/322/312 309/318/309
f 310/321/310 314/323/314 313/324/313
f 121/325/121 82/238/82 19/236/19
f 122/326/122 306/319/306 121/325/121
f 122/326/122 308/327/308 307/317/307
f 123/328/123 45/163/45 308/327/308
f 308/327/308 44/165/44 311/320/311
f 311/320/311 43/173/43 314/323/314
f 43/173/43 124/329/124 314/323/314
f 314/323/314 125/330/125 313/324/313
f 312/322/312 125/330/125 126/331/126
f 84/241/84 126/331/126 20/240/20
f 309/318/309 84/241/84 83/243/83
f 306/319/306 83/243/83 82/238/82
f 316/332/316 318/333/318 315/334/315
f 316/332/316 320/335/320 319/336/319
f 319/336/319 321/337/321 318/333/318
f 319/336/319 323/338/323 322/339/322
f 127/340/127 55/341/55 10/342/10
f 128/343/128 315/334/315 127/340/127
f 128/343/128 317/344/317 316/332/316
f 129/345/129 90/256/90 317/344/317
f 317/344/317 89/258/89 320/335/320
f 320/335/320 88/265/88 323/338/323
f 88/265/88 130/109/130 323/338/323
f 323/338/323 131/346/131 322/339/322
f 321/337/321 131/346/131 132/107/132
f 57/347/57 132/107/132 11/102/11
f 318/333/318 57/347/57 56/348/56
f 315/334/315 56/348/56 55/341/55
f 324/349/324 328/350/328 327/351/327
f 326/352/326 328/350/328 325/353/325
f 327/351/327 331/354/331 330/355/330
f 329/351/329 331/354/331 328/350/328
f 133/36/133 94/356/94 23/357/23
f 133/36/133 325/353/325 324/349/324
f 135/31/135 325/353/325 134/34/134
f 135/31/135 87/358/87 326/352/326
f 87/358/87 329/351/329 326/352/326
f 86/359/86 332/360/332 329/351/329
f 85/361/85 136/113/136 332/360/332
f 332/360/332 137/112/137 331/354/331
f 330/355/330 137/112/137 138/111/138
f 96/362/96 138/111/138 24/110/24
f 95/363/95 330/355/330 96/362/96
f 94/356/94 327/351/327 95/363/95
f 334/364/334 336/365/336 333/366/333
f 334/364/334 338/367/338 337/368/337
f 337/368/337 339/369/339 336/365/336
f 337/368/337 341/370/341 340/371/340
f 139/372/139 64/373/64 13/199/13
f 140/374/140 333/366/333 139/372/139
f 140/374/140 335/375/335 334/364/334
f 141/376/141 81/377/81 335/375/335
f 335/375/335 80/378/80 338/367/338
f 338/367/338 79/379/79 341/370/341
f 79/379/79 142/32/142 341/370/341
f 340/371/340 142/32/142 143/46/143
f 340/371/340 144/44/144 339/369/339
f 66/380/66 144/44/144 14/45/14
f 336/365/336 66/380/66 65/381/65
f 333/366/333 65/381/65 64/373/64
f 343/382/343 345/383/345 342/384/342
f 343/382/343 347/385/347 346/386/346
f 346/386/346 348/387/348 345/383/345
f 346/386/346 350/388/350 349/389/349
f 145/56/145 91/390/91 22/55/22
f 146/70/146 342/384/342 145/56/145
f 146/70/146 344/391/344 343/382/343
f 147/69/147 72/392/72 344/391/344
f 344/391/344 71/393/71 347/385/347
f 347/385/347 70/394/70 350/388/350
f 70/394/70 148/40/148 350/388/350
f 349/389/349 148/40/148 149/38/149
f 349/389/349 150/37/150 348/387/348
f 93/395/93 150/37/150 23/357/23
f 345/383/345 93/395/93 92/396/92
f 342/384/342 92/396/92 91/390/91
f 352/397/352 354/398/354 351/399/351
f 352/397/352 356/398/356 355/400/355
f 355/400/355 357/401/357 354/398/354
f 355/400/355 359/402/359 358/403/358
f 151/12/151 76/404/76 17/14/17
f 152/13/152 351/399/351 151/12/151
f 152/13/152 353/405/353 352/397/352
f 153/11/153 69/406/69 353/405/353
f 353/405/353 68/407/68 356/398/356
f 356/398/356 67/408/67 359/402/359
f 67/408/67 154/43/154 359/402/359
f 358/403/358 154/43/154 155/42/155
f 358/403/358 156/41/156 357/401/357
f 78/409/78 156/41/156 18/45/18
f 354/398/354 78/409/78 77/410/77
f 351/399/351 77/410/77 76/404/76
f 361/411/361 363/412/363 360/413/360
f 361/411/361 365/414/365 364/415/364
f 364/415/364 366/416/366 363/412/363
f 364/415/364 368/417/368 367/418/367
f 157/419/157 28/126/28 1/124/1
f 158/420/158 360/413/360 157/419/157
f 158/420/158 362/421/362 361/411/361
f 159/422/159 63/200/63 362/421/362
f 362/421/362 62/202/62 365/414/365
f 365/414/365 61/210/61 368/417/368
f 61/210/61 160/423/160 368/417/368
f 368/417/368 161/424/161 367/418/367
f 366/416/366 161/424/161 162/425/162
f 30/129/30 162/425/162 2/128/2
f 363/412/363 30/129/30 29/131/29
f 360/413/360 29/131/29 28/126/28
f 370/426/370 372/427/372 369/428/369
f 370/426/370 374/429/374 373/430/373
f 373/430/373 375/431/375 372/427/372
f 373/430/373 377/432/377 376/433/376
f 163/434/163 73/220/73 16/218/16
f 164/435/164 369/428/369 163/434/163
f 164/435/164 371/436/371 370/426/370
f 165/437/165 39/438/39 371/436/371
f 371/436/371 38/439/38 374/429/374
f 374/429/374 37/440/37 377/432/377
f 37/440/37 166/17/166 377/432/377
f 377/432/377 167/441/167 376/433/376
f 375/431/375 167/441/167 168/15/168
f 75/222/75 168/15/168 17/14/17
f 372/427/372 75/222/75 74/224/74
f 369/428/369 74/224/74 73/220/73
f 378/442/378 382/443/382 381/444/381
f 380/445/380 382/443/382 379/446/379
f 382/443/382 384/447/384 381/444/381
f 382/443/382 386/448/386 385/449/385
f 7/162/7 378/442/378 97/274/97
f 123/328/123 379/446/379 378/442/378
f 121/325/121 379/446/379 122/326/122
f 19/236/19 380/445/380 121/325/121
f 141/376/141 383/450/383 380/445/380
f 383/450/383 139/372/139 386/448/386
f 386/448/386 13/199/13 159/422/159
f 385/449/385 159/422/159 158/420/158
f 385/449/385 157/419/157 384/447/384
f 384/447/384 1/124/1 99/277/99
f 381/444/381 99/277/99 98/275/98
f 97/274/97 381/444/381 98/275/98
f 387/451/387 419/452/419 388/453/388
f 388/453/388 419/452/419 389/454/389
f 389/454/389 419/452/419 390/455/390
f 390/455/390 419/452/419 391/456/391
f 391/456/391 419/452/419 392/457/392
f 392/457/392 419/452/419 393/458/393
f 393/458/393 419/452/419 394/459/394
f 394/459/394 419/452/419 395/460/395
f 395/460/395 419/452/419 396/461/396
f 396/461/396 419/452/419 397/462/397
f 397/462/397 419/452/419 398/463/398
f 398/463/398 419/452/419 399/464/399
f 399/464/399 419/452/419 400/465/400
f 400/465/400 419/452/419 401/466/401
f 401/466/401 419/452/419 402/467/402
f 402/467/402 419/452/419 403/468/403
f 403/468/403 419/452/419 404/469/404
f 404/469/404 419/452/419 405/470/405
f 405/470/405 419/452/419 406/471/406
f 406/471/406 419/452/419 407/472/407
f 407/472/407 419/452/419 408/473/408
f 408/473/408 419/452/419 409/474/409
f 409/474/409 419/452/419 410/475/410
f 410/475/410 419/452/419 411/476/411
f 411/476/411 419/452/419 412/477/412
f 412/477/412 419/452/419 413/478/413
f 413/478/413 419/452/419 414/479/414
f 414/479/414 419/452/419 415/480/415
f 415/480/415 419/452/419 416/481/416
f 416/481/416 419/452/419 417/482/417
f 405/470/405 437/469/437 404/469/404
f 417/482/417 419/452/419 418/483/418
f 418/483/418 419/452/419 387/451/387
f 435/484/435 443/485/443 451/486/451
f 412/477/412 444/476/444 411/476/411
f 392/457/392 424/456/424 391/456/391
f 418/483/418 420/451/420 451/483/451
f 399/464/399 431/463/431 398/463/398
f 406/471/406 438/470/438 405/470/405
f 413/478/413 445/477/445 412/477/412
f 392/457/392 426/458/426 425/457/425
f 400/465/400 432/464/432 399/464/399
f 407/472/407 439/471/439 406/471/406
f 414/479/414 446/478/446 413/478/413
f 394/459/394 426/458/426 393/458/393
f 388/453/388 420/451/420 387/451/387
f 400/465/400 434/466/434 433/465/433
f 407/472/407 441/473/441 440/472/440
f 414/479/414 448/480/448 447/479/447
f 394/459/394 428/460/428 427/459/427
f 402/467/402 434/466/434 401/466/401
f 409/474/409 441/473/441 408/473/408
f 388/453/388 422/454/422 421/453/421
f 416/481/416 448/480/448 415/480/415
f 395/460/395 429/461/429 428/460/428
f 403/468/403 435/467/435 402/467/402
f 409/474/409 443/475/443 442/474/442
f 389/454/389 423/455/423 422/454/422
f 417/482/417 449/481/449 416/481/416
f 397/462/397 429/461/429 396/461/396
f 403/468/403 437/469/437 436/468/436
f 411/476/411 443/475/443 410/475/410
f 390/455/390 424/456/424 423/455/423
f 417/482/417 451/483/451 450/482/450
f 397/462/397 431/463/431 430/462/430
f 169/1/169 170/5/170 173/2/173
f 171/4/171 174/16/174 173/2/173
f 173/2/173 176/8/176 175/6/175
f 173/2/173 174/16/174 177/7/177
f 15/9/15 153/11/153 169/1/169
f 153/11/153 152/13/152 170/5/170
f 151/12/151 171/4/171 170/5/170
f 17/14/17 168/15/168 171/4/171
f 168/15/168 167/441/167 174/16/174
f 174/16/174 167/441/167 166/17/166
f 177/7/177 166/17/166 4/18/4
f 176/8/176 177/7/177 105/19/105
f 176/8/176 104/20/104 103/20/103
f 175/6/175 103/20/103 2/21/2
f 172/3/172 175/6/175 162/22/162
f 160/10/160 169/1/169 172/3/172
f 179/24/179 182/28/182 181/25/181
f 179/24/179 180/35/180 183/27/183
f 181/25/181 182/28/182 185/29/185
f 183/27/183 186/39/186 185/29/185
f 135/31/135 178/26/178 142/32/142
f 134/34/134 179/24/179 178/26/178
f 134/34/134 133/36/133 180/35/180
f 133/36/133 23/357/23 150/37/150
f 180/35/180 150/37/150 149/38/149
f 149/38/149 148/40/148 186/39/186
f 148/40/148 18/45/18 156/41/156
f 186/39/186 156/41/156 155/42/155
f 184/30/184 185/29/185 155/42/155
f 144/44/144 184/30/184 154/43/154
f 143/46/143 181/25/181 184/30/184
f 178/26/178 181/25/181 143/46/143
f 187/47/187 188/51/188 191/48/191
f 189/50/189 192/62/192 191/48/191
f 191/48/191 194/54/194 193/52/193
f 191/48/191 192/62/192 195/53/195
f 22/55/22 129/57/129 187/47/187
f 129/57/129 128/59/128 188/51/188
f 127/58/127 189/50/189 188/51/188
f 10/60/10 111/61/111 189/50/189
f 111/61/111 110/487/110 192/62/192
f 192/62/192 110/487/110 109/63/109
f 195/53/195 109/63/109 5/64/5
f 194/54/194 195/53/195 165/65/165
f 194/54/194 164/66/164 163/67/163
f 193/52/193 163/67/163 16/68/16
f 190/49/190 193/52/193 147/69/147
f 145/56/145 187/47/187 190/49/190
f 197/71/197 200/75/200 199/72/199
f 197/71/197 198/82/198 201/74/201
f 199/72/199 200/75/200 203/76/203
f 201/74/201 204/86/204 203/76/203
f 108/78/108 196/73/196 100/79/100
f 107/81/107 197/71/197 196/73/196
f 107/81/107 106/83/106 198/82/198
f 106/83/106 6/151/6 114/84/114
f 198/82/198 114/84/114 113/85/113
f 113/85/113 112/87/112 204/86/204
f 112/87/112 12/92/12 120/88/120
f 204/86/204 120/88/120 119/89/119
f 202/77/202 203/76/203 119/89/119
f 102/91/102 202/77/202 118/90/118
f 101/93/101 199/72/199 202/77/202
f 196/73/196 199/72/199 101/93/101
f 205/94/205 206/98/206 209/95/209
f 207/97/207 210/108/210 209/95/209
f 209/95/209 212/101/212 211/99/211
f 209/95/209 210/108/210 213/100/213
f 9/102/9 117/104/117 205/94/205
f 117/104/117 116/106/116 206/98/206
f 115/105/115 207/97/207 206/98/206
f 11/102/11 132/107/132 207/97/207
f 132/107/132 131/346/131 210/108/210
f 210/108/210 131/346/131 130/109/130
f 213/100/213 130/109/130 24/110/24
f 212/101/212 213/100/213 138/111/138
f 212/101/212 137/112/137 136/113/136
f 211/99/211 136/113/136 20/114/20
f 208/96/208 211/99/211 126/115/126
f 124/103/124 205/94/205 208/96/208
f 215/117/215 216/121/216 214/118/214
f 217/120/217 218/122/218 214/118/214
f 220/119/220 214/118/214 218/122/218
f 1/124/1 28/126/28 215/117/215
f 28/126/28 29/131/29 216/121/216
f 27/125/27 215/117/215 220/119/220
f 2/128/2 31/130/31 217/120/217
f 31/130/31 32/135/32 218/122/218
f 30/129/30 217/120/217 216/121/216
f 3/132/3 25/134/25 219/123/219
f 26/127/26 220/119/220 219/123/219
f 219/123/219 218/122/218 32/135/32
f 222/136/222 223/140/223 221/137/221
f 224/139/224 225/141/225 221/137/221
f 227/138/227 221/137/221 225/141/225
f 4/143/4 37/145/37 222/136/222
f 37/145/37 38/150/38 223/140/223
f 36/144/36 222/136/222 227/138/227
f 5/147/5 40/149/40 224/139/224
f 40/149/40 41/154/41 225/141/225
f 39/148/39 224/139/224 223/140/223
f 6/151/6 34/153/34 226/142/226
f 35/146/35 227/138/227 226/142/226
f 226/142/226 225/141/225 41/154/41
f 229/155/229 230/159/230 228/156/228
f 232/158/232 228/156/228 230/159/230
f 233/161/233 234/157/234 228/156/228
f 7/162/7 46/164/46 229/155/229
f 46/164/46 47/170/47 230/159/230
f 45/163/45 229/155/229 234/157/234
f 8/166/8 49/169/49 231/160/231
f 50/168/50 232/158/232 231/160/231
f 231/160/231 230/159/230 47/170/47
f 9/171/9 43/173/43 233/161/233
f 43/173/43 44/165/44 234/157/234
f 51/172/51 233/161/233 232/158/232
f 236/174/236 237/178/237 235/175/235
f 238/177/238 239/179/239 235/175/235
f 241/176/241 235/175/235 239/179/239
f 10/181/10 55/183/55 236/174/236
f 55/183/55 56/188/56 237/178/237
f 54/182/54 236/174/236 241/176/241
f 11/185/11 58/187/58 238/177/238
f 58/187/58 59/191/59 239/179/239
f 57/186/57 238/177/238 237/178/237
f 12/92/12 52/190/52 240/180/240
f 53/184/53 241/176/241 240/180/240
f 240/180/240 239/179/239 59/191/59
f 243/192/243 244/196/244 242/193/242
f 246/195/246 242/193/242 244/196/244
f 247/198/247 248/194/248 242/193/242
f 13/199/13 64/201/64 243/192/243
f 64/201/64 65/207/65 244/196/244
f 63/200/63 243/192/243 248/194/248
f 14/203/14 67/206/67 245/197/245
f 68/205/68 246/195/246 245/197/245
f 245/197/245 244/196/244 65/207/65
f 15/208/15 61/210/61 247/198/247
f 61/210/61 62/202/62 248/194/248
f 69/209/69 247/198/247 246/195/246
f 250/211/250 251/215/251 249/212/249
f 252/214/252 253/216/253 249/212/249
f 255/213/255 249/212/249 253/216/253
f 16/218/16 73/220/73 250/211/250
f 73/220/73 74/224/74 251/215/251
f 72/219/72 250/211/250 255/213/255
f 17/14/17 76/223/76 252/214/252
f 76/223/76 77/228/77 253/216/253
f 75/222/75 252/214/252 251/215/251
f 18/225/18 70/227/70 254/217/254
f 71/221/71 255/213/255 254/217/254
f 254/217/254 253/216/253 77/228/77
f 257/229/257 258/233/258 256/230/256
f 259/232/259 260/234/260 256/230/256
f 262/231/262 256/230/256 260/234/260
f 19/236/19 82/238/82 257/229/257
f 82/238/82 83/243/83 258/233/258
f 81/237/81 257/229/257 262/231/262
f 20/240/20 85/242/85 259/232/259
f 85/242/85 86/247/86 260/234/260
f 84/241/84 259/232/259 258/233/258
f 21/244/21 79/246/79 261/235/261
f 80/239/80 262/231/262 261/235/261
f 261/235/261 260/234/260 86/247/86
f 264/248/264 265/252/265 263/249/263
f 267/251/267 263/249/263 265/252/265
f 268/254/268 269/250/269 263/249/263
f 22/255/22 91/257/91 264/248/264
f 91/257/91 92/263/92 265/252/265
f 90/256/90 264/248/264 269/250/269
f 23/259/23 94/262/94 266/253/266
f 95/261/95 267/251/267 266/253/266
f 266/253/266 265/252/265 92/263/92
f 24/110/24 88/265/88 268/254/268
f 88/265/88 89/258/89 269/250/269
f 96/264/96 268/254/268 267/251/267
f 271/266/271 274/270/274 273/267/273
f 271/266/271 272/276/272 275/269/275
f 274/270/274 277/273/277 276/271/276
f 274/270/274 275/269/275 278/272/278
f 97/274/97 270/268/270 46/164/46
f 98/275/98 271/266/271 270/268/270
f 98/275/98 99/277/99 272/276/272
f 99/277/99 1/124/1 27/125/27
f 272/276/272 27/125/27 26/127/26
f 275/269/275 26/127/26 25/134/25
f 25/134/25 3/132/3 100/278/100
f 277/273/277 278/272/278 100/278/100
f 277/273/277 101/279/101 102/280/102
f 48/167/48 276/271/276 102/280/102
f 273/267/273 276/271/276 48/167/48
f 270/268/270 273/267/273 47/170/47
f 280/281/280 283/285/283 282/282/282
f 280/281/280 281/291/281 284/284/284
f 283/285/283 286/288/286 285/286/285
f 283/285/283 284/284/284 287/287/287
f 103/289/103 279/283/279 31/290/31
f 104/289/104 280/281/280 279/283/279
f 104/289/104 105/289/105 281/291/281
f 105/289/105 4/143/4 36/144/36
f 281/291/281 36/144/36 35/146/35
f 284/284/284 35/146/35 34/153/34
f 34/153/34 6/151/6 106/83/106
f 286/288/286 287/287/287 106/83/106
f 286/288/286 107/81/107 108/78/108
f 33/292/33 285/286/285 108/78/108
f 282/282/282 285/286/285 33/292/33
f 279/283/279 282/282/282 32/293/32
f 289/294/289 292/298/292 291/295/291
f 289/294/289 290/304/290 293/297/293
f 292/298/292 295/301/295 294/299/294
f 292/298/292 293/297/293 296/300/296
f 109/302/109 288/296/288 40/149/40
f 110/303/110 289/294/289 288/296/288
f 110/303/110 111/305/111 290/304/290
f 111/305/111 10/181/10 54/182/54
f 290/304/290 54/182/54 53/184/53
f 293/297/293 53/184/53 52/190/52
f 52/190/52 12/92/12 112/87/112
f 295/301/295 296/300/296 112/87/112
f 295/301/295 113/85/113 114/84/114
f 42/152/42 294/299/294 114/84/114
f 291/295/291 294/299/294 42/152/42
f 288/296/288 291/295/291 41/154/41
f 298/306/298 301/309/301 300/307/300
f 298/306/298 299/314/299 302/307/302
f 301/309/301 304/312/304 303/310/303
f 301/309/301 302/307/302 305/311/305
f 115/105/115 297/308/297 58/313/58
f 116/106/116 298/306/298 297/308/297
f 116/106/116 117/104/117 299/314/299
f 117/104/117 9/102/9 51/313/51
f 299/314/299 51/313/51 50/315/50
f 302/307/302 50/315/50 49/316/49
f 49/316/49 8/92/8 118/90/118
f 304/312/304 305/311/305 118/90/118
f 304/312/304 119/89/119 120/88/120
f 60/316/60 303/310/303 120/88/120
f 300/307/300 303/310/303 60/316/60
f 297/308/297 300/307/300 59/315/59
f 307/317/307 310/321/310 309/318/309
f 307/317/307 308/327/308 311/320/311
f 310/321/310 313/324/313 312/322/312
f 310/321/310 311/320/311 314/323/314
f 121/325/121 306/319/306 82/238/82
f 122/326/122 307/317/307 306/319/306
f 122/326/122 123/328/123 308/327/308
f 123/328/123 7/162/7 45/163/45
f 308/327/308 45/163/45 44/165/44
f 311/320/311 44/165/44 43/173/43
f 43/173/43 9/171/9 124/329/124
f 314/323/314 124/329/124 125/330/125
f 312/322/312 313/324/313 125/330/125
f 84/241/84 312/322/312 126/331/126
f 309/318/309 312/322/312 84/241/84
f 306/319/306 309/318/309 83/243/83
f 316/332/316 319/336/319 318/333/318
f 316/332/316 317/344/317 320/335/320
f 319/336/319 322/339/322 321/337/321
f 319/336/319 320/335/320 323/338/323
f 127/340/127 315/334/315 55/341/55
f 128/343/128 316/332/316 315/334/315
f 128/343/128 129/345/129 317/344/317
f 129/345/129 22/255/22 90/256/90
f 317/344/317 90/256/90 89/258/89
f 320/335/320 89/258/89 88/265/88
f 88/265/88 24/110/24 130/109/130
f 323/338/323 130/109/130 131/346/131
f 321/337/321 322/339/322 131/346/131
f 57/347/57 321/337/321 132/107/132
f 318/333/318 321/337/321 57/347/57
f 315/334/315 318/333/318 56/348/56
f 324/349/324 325/353/325 328/350/328
f 326/352/326 329/351/329 328/350/328
f 327/351/327 328/350/328 331/354/331
f 329/351/329 332/360/332 331/354/331
f 133/36/133 324/349/324 94/356/94
f 133/36/133 134/34/134 325/353/325
f 135/31/135 326/352/326 325/353/325
f 135/31/135 21/33/21 87/358/87
f 87/358/87 86/359/86 329/351/329
f 86/359/86 85/361/85 332/360/332
f 85/361/85 20/114/20 136/113/136
f 332/360/332 136/113/136 137/112/137
f 330/355/330 331/354/331 137/112/137
f 96/362/96 330/355/330 138/111/138
f 95/363/95 327/351/327 330/355/330
f 94/356/94 324/349/324 327/351/327
f 334/364/334 337/368/337 336/365/336
f 334/364/334 335/375/335 338/367/338
f 337/368/337 340/371/340 339/369/339
f 337/368/337 338/367/338 341/370/341
f 139/372/139 333/366/333 64/373/64
f 140/374/140 334/364/334 333/366/333
f 140/374/140 141/376/141 335/375/335
f 141/376/141 19/236/19 81/377/81
f 335/375/335 81/377/81 80/378/80
f 338/367/338 80/378/80 79/379/79
f 79/379/79 21/33/21 142/32/142
f 340/371/340 341/370/341 142/32/142
f 340/371/340 143/46/143 144/44/144
f 66/380/66 339/369/339 144/44/144
f 336/365/336 339/369/339 66/380/66
f 333/366/333 336/365/336 65/381/65
f 343/382/343 346/386/346 345/383/345
f 343/382/343 344/391/344 347/385/347
f 346/386/346 349/389/349 348/387/348
f 346/386/346 347/385/347 350/388/350
f 145/56/145 342/384/342 91/390/91
f 146/70/146 343/382/343 342/384/342
f 146/70/146 147/69/147 344/391/344
f 147/69/147 16/68/16 72/392/72
f 344/391/344 72/392/72 71/393/71
f 347/385/347 71/393/71 70/394/70
f 70/394/70 18/45/18 148/40/148
f 349/389/349 350/388/350 148/40/148
f 349/389/349 149/38/149 150/37/150
f 93/395/93 348/387/348 150/37/150
f 345/383/345 348/387/348 93/395/93
f 342/384/342 345/383/345 92/396/92
f 352/397/352 355/400/355 354/398/354
f 352/397/352 353/405/353 356/398/356
f 355/400/355 358/403/358 357/401/357
f 355/400/355 356/398/356 359/402/359
f 151/12/151 351/399/351 76/404/76
f 152/13/152 352/397/352 351/399/351
f 152/13/152 153/11/153 353/405/353
f 153/11/153 15/9/15 69/406/69
f 353/405/353 69/406/69 68/407/68
f 356/398/356 68/407/68 67/408/67
f 67/408/67 14/45/14 154/43/154
f 358/403/358 359/402/359 154/43/154
f 358/403/358 155/42/155 156/41/156
f 78/409/78 357/401/357 156/41/156
f 354/398/354 357/401/357 78/409/78
f 351/399/351 354/398/354 77/410/77
f 361/411/361 364/415/364 363/412/363
f 361/411/361 362/421/362 365/414/365
f 364/415/364 367/418/367 366/416/366
f 364/415/364 365/414/365 368/417/368
f 157/419/157 360/413/360 28/126/28
f 158/420/158 361/411/361 360/413/360
f 158/420/158 159/422/159 362/421/362
f 159/422/159 13/199/13 63/200/63
f 362/421/362 63/200/63 62/202/62
f 365/414/365 62/202/62 61/210/61
f 61/210/61 15/208/15 160/423/160
f 368/417/368 160/423/160 161/424/161
f 366/416/366 367/418/367 161/424/161
f 30/129/30 366/416/366 162/425/162
f 363/412/363 366/416/366 30/129/30
f 360/413/360 363/412/363 29/131/29
f 370/426/370 373/430/373 372/427/372
f 370/426/370 371/436/371 374/429/374
f 373/430/373 376/433/376 375/431/375
f 373/430/373 374/429/374 377/432/377
f 163/434/163 369/428/369 73/220/73
f 164/435/164 370/426/370 369/428/369
f 164/435/164 165/437/165 371/436/371
f 165/437/165 5/488/5 39/438/39
f 371/436/371 39/438/39 38/439/38
f 374/429/374 38/439/38 37/440/37
f 37/440/37 4/18/4 166/17/166
f 377/432/377 166/17/166 167/441/167
f 375/431/375 376/433/376 167/441/167
f 75/222/75 375/431/375 168/15/168
f 372/427/372 375/431/375 75/222/75
f 369/428/369 372/427/372 74/224/74
f 378/442/378 379/446/379 382/443/382
f 380/445/380 383/450/383 382/443/382
f 382/443/382 385/449/385 384/447/384
f 382/443/382 383/450/383 386/448/386
f 7/162/7 123/328/123 378/442/378
f 123/328/123 122/326/122 379/446/379
f 121/325/121 380/445/380 379/446/379
f 19/236/19 141/376/141 380/445/380
f 141/376/141 140/374/140 383/450/383
f 383/450/383 140/374/140 139/372/139
f 386/448/386 139/372/139 13/199/13
f 385/449/385 386/448/386 159/422/159
f 385/449/385 158/420/158 157/419/157
f 384/447/384 157/419/157 1/124/1
f 381/444/381 384/447/384 99/277/99
f 97/274/97 378/442/378 381/444/381
f 405/470/405 438/470/438 437/469/437
f 451/486/451 420/489/420 421/490/421
f 421/490/421 422/491/422 423/492/423
f 423/492/423 424/493/424 425/494/425
f 425/494/425 426/495/426 427/496/427
f 427/496/427 428/497/428 429/498/429
f 429/498/429 430/499/430 431/500/431
f 431/500/431 432/501/432 433/502/433
f 433/502/433 434/503/434 435/484/435
f 435/484/435 436/504/436 437/505/437
f 437/505/437 438/506/438 439/507/439
f 439/507/439 440/508/440 441/509/441
f 441/509/441 442/510/442 443/485/443
f 443/485/443 444/511/444 445/512/445
f 445/512/445 446/513/446 447/514/447
f 447/514/447 448/515/448 449/516/449
f 449/516/449 450/517/450 451/486/451
f 451/486/451 421/490/421 423/492/423
f 423/492/423 425/494/425 427/496/427
f 427/496/427 429/498/429 431/500/431
f 431/500/431 433/502/433 435/484/435
f 435/484/435 437/505/437 439/507/439
f 439/507/439 441/509/441 443/485/443
f 443/485/443 445/512/445 447/514/447
f 447/514/447 449/516/449 451/486/451
f 451/486/451 423/492/423 427/496/427
f 427/496/427 431/500/431 435/484/435
f 435/484/435 439/507/439 443/485/443
f 443/485/443 447/514/447 451/486/451
f 451/486/451 427/496/427 435/484/435
f 412/477/412 445/477/445 444/476/444
f 392/457/392 425/457/425 424/456/424
f 418/483/418 387/451/387 420/451/420
f 399/464/399 432/464/432 431/463/431
f 406/471/406 439/471/439 438/470/438
f 413/478/413 446/478/446 445/477/445
f 392/457/392 393/458/393 426/458/426
f 400/465/400 433/465/433 432/464/432
f 407/472/407 440/472/440 439/471/439
f 414/479/414 447/479/447 446/478/446
f 394/459/394 427/459/427 426/458/426
f 388/453/388 421/453/421 420/451/420
f 400/465/400 401/466/401 434/466/434
f 407/472/407 408/473/408 441/473/441
f 414/479/414 415/480/415 448/480/448
f 394/459/394 395/460/395 428/460/428
f 402/467/402 435/467/435 434/466/434
f 409/474/409 442/474/442 441/473/441
f 388/453/388 389/454/389 422/454/422
f 416/481/416 449/481/449 448/480/448
f 395/460/395 396/461/396 429/461/429
f 403/468/403 436/468/436 435/467/435
f 409/474/409 410/475/410 443/475/443
f 389/454/389 390/455/390 423/455/423
f 417/482/417 450/482/450 449/481/449
f 397/462/397 430/462/430 429/461/429
f 403/468/403 404/469/404 437/469/437
f 411/476/411 444/476/444 443/475/443
f 390/455/390 391/456/391 424/456/424
f 417/482/417 418/483/418 451/483/451
f 397/462/397 398/463/398 431/463/431
o pedestrian
v -0.214716 0.654519 -0.848302
v -0.215584 -0.681293 -0.848552
v -0.198442 0.655329 0.435011
v -0.199663 -0.680142 0.435454
v -0.269207 0.658008 -0.202249
v -0.241408 -0.014098 -0.850578
v -0.271240 -0.682666 -0.202189
v -0.221254 -0.014460 0.443255
v -0.305332 -0.013269 -0.201363
v -0.260270 0.657223 -0.530011
v -0.235334 -0.348760 -0.849990
v -0.253567 -0.681387 0.129129
v -0.215866 0.323666 0.441315
v -0.251436 0.657420 0.128922
v -0.235097 0.323545 -0.849925
v -0.261958 -0.682098 -0.529033
v -0.216216 -0.348407 0.441441
v -0.284350 -0.013751 0.131228
v -0.294536 -0.013359 -0.532667
v -0.296739 0.324781 -0.201607
v -0.297332 -0.349485 -0.201587
v -0.286856 -0.349268 -0.531725
v -0.286391 0.324522 -0.531936
v -0.276538 0.324478 0.130588
v -0.277161 -0.349030 0.130660
vn -0.9799 -0.0524 0.1923
vn -0.9812 0.0230 0.1916
vn -0.9992 0.0254 -0.0313
vn -0.9967 -0.0748 -0.0317
vn -0.9992 -0.0229 -0.0326
vn -0.9861 -0.0230 -0.1647
vn -0.9854 -0.0592 -0.1596
vn -0.9962 0.0823 -0.0274
vn -0.9868 0.0783 -0.1419
vn -0.9869 0.0241 -0.1593
vn -0.9825 0.0749 0.1706
vn -0.9952 0.0823 0.0535
vn -0.9978 0.0254 0.0607
vn -0.9800 -0.0159 0.1981
vn -0.9978 -0.0215 0.0629
vn -0.9956 -0.0710 0.0605
vn -0.9824 -0.0705 0.1732
vn -0.9800 0.0168 0.1982
vn -0.9992 0.0242 -0.0326
vn -0.9965 -0.0780 -0.0284
vn -0.9992 -0.0238 -0.0317
vn -0.9870 -0.0182 -0.1598
vn -0.9868 -0.0750 -0.1434
vn -0.9964 0.0784 -0.0313
vn -0.9853 0.0615 -0.1591
vn -0.9861 0.0188 -0.1648
vn -0.9799 0.0551 0.1915
vn -0.9953 0.0753 0.0606
vn -0.9977 0.0232 0.0630
vn -0.9811 -0.0214 0.1924
vn -0.9979 -0.0238 0.0606
vn -0.9955 -0.0781 0.0534
vt 0.750000 0.750000
vt 1.000000 1.000000
vt 0.750000 1.000000
vt 0.500000 0.750000
vt 0.250000 1.000000
vt 0.250000 0.750000
vt 0.250000 0.250000
vt 0.500000 0.500000
vt 0.250000 0.500000
vt 1.000000 0.250000
vt 0.750000 0.500000
vt 0.750000 0.250000
vt 0.500000 0.250000
vt 0.500000 0.000000
vt 1.000000 0.000000
vt 0.750000 0.000000
vt 0.000000 0.250000
vt 0.000000 0.500000
vt 0.000000 0.000000
vt 0.250000 0.000000
vt 0.000000 1.000000
vt 0.000000 0.750000
vt 0.500000 1.000000
vt 1.000000 0.750000
vt 1.000000 0.500000
s 0
usemtl pedestrian
f 476/518/452 455/519/452 468/520/452
f 469/521/453 464/522/453 475/523/453
f 474/524/454 460/525/454 471/526/454
f 467/527/455 472/528/455 473/529/455
f 473/529/456 460/525/456 470/530/456
f 457/531/457 473/529/457 470/530/457
f 453/532/458 473/529/458 462/533/458
f 461/534/459 471/526/459 456/535/459
f 452/536/460 474/524/460 461/534/460
f 466/537/461 470/530/461 474/524/461
f 475/523/462 454/538/462 465/539/462
f 471/526/463 465/539/463 456/535/463
f 460/525/464 475/523/464 471/526/464
f 469/521/465 468/520/465 459/540/465
f 460/525/466 476/518/466 469/521/466
f 472/528/467 463/541/467 476/518/467
f 476/518/468 463/541/468 455/519/468
f 469/521/469 459/540/469 464/522/469
f 474/524/470 470/530/470 460/525/470
f 467/527/471 458/542/471 472/528/471
f 473/529/472 472/528/472 460/525/472
f 457/531/473 462/533/473 473/529/473
f 453/532/474 467/527/474 473/529/474
f 461/534/475 474/524/475 471/526/475
f 452/536/476 466/537/476 474/524/476
f 466/537/477 457/531/477 470/530/477
f 475/523/478 464/522/478 454/538/478
f 471/526/479 475/523/479 465/539/479
f 460/525/480 469/521/480 475/523/480
f 469/521/481 476/518/481 468/520/481
f 460/525/482 472/528/482 476/518/482
f 472/528/483 458/542/483 463/541/483
