mtllib source/cloud.mtl
o Cloud
usemtl CloudMaterial
v 1.5066057690987407 0.8017989487371011 0.37236300165338676
v 1.5190231118555175 0.5337432292033313 0.8647985781218921
v 1.9394085821117812 0.5541281212111784 0.33836648237043576
v 2.1536031574096057 0.006603609928668985 0.32126263851439063
v 1.926837643573009 -0.331320456269129 -0.1915295461749249
v 1.9148483073174702 0.32777087320987874 -0.20864985776665712
v 1.5768017216654755 0.622957895993494 -0.2044564094360357
v 1.5967511335518196 0.008146714800674415 -0.5191162204163788
v 0.844280501046704 0.49228829460707857 -0.5016690281369236
v 0.650721828313209 0.8264391139549332 -0.05787016810097878
v 1.5768017216654755 0.622957895993494 -0.2044564094360357
v 0.844280501046704 0.49228829460707857 -0.5016690281369236
v 1.5768017216654755 0.622957895993494 -0.2044564094360357
v 0.650721828313209 0.8264391139549332 -0.05787016810097878
v 1.5066057690987407 0.8017989487371011 0.37236300165338676
v 1.5066057690987407 0.8017989487371011 0.37236300165338676
v 0.650721828313209 0.8264391139549332 -0.05787016810097878
v 0.5947995626926286 0.7957697473294871 0.4737721169187026
v 0.650721828313209 0.8264391139549332 -0.05787016810097878
v 0.0319307945347993 0.9161648217445872 -0.44948924229174025
v 0.2007622375957645 0.923309190380138 0.7186161120071972
v 0.2007622375957645 0.923309190380138 0.7186161120071972
v -0.1523793214417335 1.0065196537339176 -0.002590489263389062
v -0.18998170787586055 0.9179247820036522 1.0192806799384613
v 0.6926435291516597 0.4993975114562801 0.9281004510186364
v 0.2007622375957645 0.923309190380138 0.7186161120071972
v 0.17436671226099598 0.6069099200542496 1.33424717994626
v 0.17436671226099598 0.6069099200542496 1.33424717994626
v -0.18998170787586055 0.9179247820036522 1.0192806799384613
v -0.19180623763690363 0.3292386922299002 1.6515121532098647
v -0.18998170787586055 0.9179247820036522 1.0192806799384613
v -0.6313268559661012 0.5859596615589169 1.3966672687361665
v -0.19180623763690363 0.3292386922299002 1.6515121532098647
v -0.6313268559661012 0.5859596615589169 1.3966672687361665
v -0.18998170787586055 0.9179247820036522 1.0192806799384613
v -0.536200040124335 0.9063885017627911 0.7862696935864477
v -0.536200040124335 0.9063885017627911 0.7862696935864477
v -1.1548598828746037 0.5691269554918605 0.7599831671375767
v -0.6313268559661012 0.5859596615589169 1.3966672687361665
v -1.1548598828746037 0.5691269554918605 0.7599831671375767
v -0.536200040124335 0.9063885017627911 0.7862696935864477
v -0.9305072659971785 0.7953247318993704 0.2313369211837859
v 0.011010166366706375 -0.9255126198030581 -0.43523761541091943
v -0.8154505212239656 -0.5534939458750472 -0.5484258520334961
v -0.18520888646253297 -0.31060613223422706 -0.9464455601162598
v -0.763098481317229 -0.7828144069980567 -0.1270594562319154
v -0.8154505212239656 -0.5534939458750472 -0.5484258520334961
v 0.011010166366706375 -0.9255126198030581 -0.43523761541091943
v -0.18761934805234226 -0.8769224395421986 1.0922297080419412
v -0.6364321117401417 -0.5821978019130398 1.3986445309472089
v -0.35942356209334747 -1.0024200895364856 0.6879527758201718
v -0.6364321117401417 -0.5821978019130398 1.3986445309472089
v -0.183779440616906 -0.35865908805356383 1.633437537623621
v -0.6586020135204933 -0.09122767996573078 1.627160418192048
v -0.19180623763690363 0.3292386922299002 1.6515121532098647
v -0.6586020135204933 -0.09122767996573078 1.627160418192048
v -0.183779440616906 -0.35865908805356383 1.633437537623621
v -0.6313268559661012 0.5859596615589169 1.3966672687361665
v -0.7938094940473235 0.15629984089161297 1.5019530539172905
v -0.6586020135204933 -0.09122767996573078 1.627160418192048
v 0.7278435074660905 -0.27766810952072163 1.0685889462512534
v 0.17990006473513986 0.008125010698719848 1.6113542782961332
v 0.1857831826376799 -0.6116505662437817 1.32425665054501
v 0.7504604863649078 0.14827679356729995 1.0789824326403021
v 0.7278435074660905 -0.27766810952072163 1.0685889462512534
v 1.7300822715122877 -0.17157257046945062 1.0004755050857739
v 0.9302857375840858 -0.0007323006280189059 -0.6574022655280416
v 0.1684674358760212 -0.34527081893996225 -0.9313892562728512
v 0.1711526560949821 0.34138458794443594 -0.9334803236807545
v 0.844280501046704 0.49228829460707857 -0.5016690281369236
v 0.9302857375840858 -0.0007323006280189059 -0.6574022655280416
v 0.1711526560949821 0.34138458794443594 -0.9334803236807545
v 0.0319307945347993 0.9161648217445872 -0.44948924229174025
v 0.844280501046704 0.49228829460707857 -0.5016690281369236
v 0.1711526560949821 0.34138458794443594 -0.9334803236807545
v 1.5967511335518196 0.008146714800674415 -0.5191162204163788
v 0.8330099208918114 -0.502580139760525 -0.49581058606680983
v 0.9302857375840858 -0.0007323006280189059 -0.6574022655280416
v 0.9302857375840858 -0.0007323006280189059 -0.6574022655280416
v 0.8330099208918114 -0.502580139760525 -0.49581058606680983
v 0.1684674358760212 -0.34527081893996225 -0.9313892562728512
v 1.9408880496709742 -0.5546330286878316 0.33928725815817273
v 1.5091426766121003 -0.8021528890844039 0.3623802808967582
v 1.5751656688761813 -0.6252659045579136 -0.21878703763727714
v 1.926837643573009 -0.331320456269129 -0.1915295461749249
v 1.9408880496709742 -0.5546330286878316 0.33928725815817273
v 1.5751656688761813 -0.6252659045579136 -0.21878703763727714
v 1.5299294432213628 -0.5290080464879239 0.869309036807266
v 1.5091426766121003 -0.8021528890844039 0.3623802808967582
v 1.9408880496709742 -0.5546330286878316 0.33928725815817273
v 0.5345021366845728 -0.8524199435638664 -0.08336603706803469
v 1.5751656688761813 -0.6252659045579136 -0.21878703763727714
v 1.5091426766121003 -0.8021528890844039 0.3623802808967582
v 0.1687259458238728 -0.9357994138200496 0.7276518219918486
v -0.18761934805234226 -0.8769224395421986 1.0922297080419412
v -0.35942356209334747 -1.0024200895364856 0.6879527758201718
v -0.8528327451135311 2.7992482131506237e-9 -0.7972790062853221
v -0.8154505212239656 -0.5534939458750472 -0.5484258520334961
v -1.5286450113799788 0 -0.829301201263128
v -0.8272699743595524 0.5459844522329007 -0.5549187271507847
v -0.8528327451135311 2.7992482131506237e-9 -0.7972790062853221
v -1.5286450113799788 0 -0.829301201263128
v -1.5286450113799788 0 -0.829301201263128
v -1.7604012542028329 -0.5619206846636331 -0.5723027286823452
v -2.0259184684147726 -0.0006880335215222189 -0.6757679399669456
v -1.1689658514735726 -0.49378848213417825 0.8135688182678962
v -1.854835033506106 -0.16118673809839734 0.7460822849871178
v -1.9680202806805767 -0.6344455719315292 0.35222239394378363
v -2.0516730792696194 0.6673285733372225 0.009130708718104508
v -1.6017064014984754 0.8377855126988578 -0.04556929785036434
v -1.759816559387076 0.5626664488816502 -0.5723347363939624
v 0.5947995626926286 0.7957697473294871 0.4737721169187026
v 0.6926435291516597 0.4993975114562801 0.9281004510186364
v 1.5190231118555175 0.5337432292033313 0.8647985781218921
v 0.5947995626926286 0.7957697473294871 0.4737721169187026
v 1.5190231118555175 0.5337432292033313 0.8647985781218921
v 1.5066057690987407 0.8017989487371011 0.37236300165338676
v -2.2804479145710843 0.19125607610099138 0.31607122993846914
v -2.3247907075798935 0.0011597517418243247 -0.25271361414299065
v -2.2766494599570137 -0.2116013192647781 0.3003073546537074
v -2.0516730792696194 0.6673285733372225 0.009130708718104508
v -2.2804479145710843 0.19125607610099138 0.31607122993846914
v -1.824542440426427 0.6067910637209337 0.5117095534806353
v -2.2804479145710843 0.19125607610099138 0.31607122993846914
v -2.0516730792696194 0.6673285733372225 0.009130708718104508
v -2.3247907075798935 0.0011597517418243247 -0.25271361414299065
v -0.9207552739378997 -0.7902980264514241 0.38166093262491785
v -1.1689658514735726 -0.49378848213417825 0.8135688182678962
v -1.6287725553964947 -0.7709089299161107 0.31454215300338007
v -0.7938094940473235 0.15629984089161297 1.5019530539172905
v -1.1980341109272388 -0.004250958160698426 1.0605552683463912
v -0.6586020135204933 -0.09122767996573078 1.627160418192048
v -1.1548598828746037 0.5691269554918605 0.7599831671375767
v -1.1980341109272388 -0.004250958160698426 1.0605552683463912
v -0.6313268559661012 0.5859596615589169 1.3966672687361665
v -1.1548598828746037 0.5691269554918605 0.7599831671375767
v -1.8151215555159865 0.1891649056086706 0.7529741483421333
v -1.1980341109272388 -0.004250958160698426 1.0605552683463912
v -1.854835033506106 -0.16118673809839734 0.7460822849871178
v -1.1689658514735726 -0.49378848213417825 0.8135688182678962
v -1.1980341109272388 -0.004250958160698426 1.0605552683463912
v -1.1980341109272388 -0.004250958160698426 1.0605552683463912
v -0.6364321117401417 -0.5821978019130398 1.3986445309472089
v -0.6586020135204933 -0.09122767996573078 1.627160418192048
v 0.1857831826376799 -0.6116505662437817 1.32425665054501
v -0.18761934805234226 -0.8769224395421986 1.0922297080419412
v 0.1687259458238728 -0.9357994138200496 0.7276518219918486
v -0.35942356209334747 -1.0024200895364856 0.6879527758201718
v -1.1689658514735726 -0.49378848213417825 0.8135688182678962
v -0.9207552739378997 -0.7902980264514241 0.38166093262491785
v 0.1684674358760212 -0.34527081893996225 -0.9313892562728512
v 0.011010166366706375 -0.9255126198030581 -0.43523761541091943
v -0.18520888646253297 -0.31060613223422706 -0.9464455601162598
v 0.0319307945347993 0.9161648217445872 -0.44948924229174025
v 0.1711526560949821 0.34138458794443594 -0.9334803236807545
v -0.19603460581393506 0.3112448948269346 -0.9396965202216165
v -0.7820593651824694 0.788602906290933 -0.09752784520737912
v -0.1523793214417335 1.0065196537339176 -0.002590489263389062
v 0.0319307945347993 0.9161648217445872 -0.44948924229174025
v 1.5066057690987407 0.8017989487371011 0.37236300165338676
v 1.9394085821117812 0.5541281212111784 0.33836648237043576
v 1.5768017216654755 0.622957895993494 -0.2044564094360357
v 2.1536031574096057 0.006603609928668985 0.32126263851439063
v 1.9148483073174702 0.32777087320987874 -0.20864985776665712
v 1.9394085821117812 0.5541281212111784 0.33836648237043576
v 2.1536031574096057 0.006603609928668985 0.32126263851439063
v 1.9408880496709742 -0.5546330286878316 0.33928725815817273
v 1.926837643573009 -0.331320456269129 -0.1915295461749249
v 2.1536031574096057 0.006603609928668985 0.32126263851439063
v 1.9394085821117812 0.5541281212111784 0.33836648237043576
v 1.7452175380194603 0.18888137191848386 0.9754968106410473
v 1.9408880496709742 -0.5546330286878316 0.33928725815817273
v 2.1536031574096057 0.006603609928668985 0.32126263851439063
v 1.7300822715122877 -0.17157257046945062 1.0004755050857739
v 1.5190231118555175 0.5337432292033313 0.8647985781218921
v 1.7452175380194603 0.18888137191848386 0.9754968106410473
v 1.9394085821117812 0.5541281212111784 0.33836648237043576
v 1.5768017216654755 0.622957895993494 -0.2044564094360357
v 1.9148483073174702 0.32777087320987874 -0.20864985776665712
v 1.5967511335518196 0.008146714800674415 -0.5191162204163788
v 1.5299294432213628 -0.5290080464879239 0.869309036807266
v 1.9408880496709742 -0.5546330286878316 0.33928725815817273
v 1.7300822715122877 -0.17157257046945062 1.0004755050857739
v 1.5967511335518196 0.008146714800674415 -0.5191162204163788
v 1.926837643573009 -0.331320456269129 -0.1915295461749249
v 1.5751656688761813 -0.6252659045579136 -0.21878703763727714
v 1.7452175380194603 0.18888137191848386 0.9754968106410473
v 1.5190231118555175 0.5337432292033313 0.8647985781218921
v 0.7504604863649078 0.14827679356729995 1.0789824326403021
v 0.844280501046704 0.49228829460707857 -0.5016690281369236
v 1.5967511335518196 0.008146714800674415 -0.5191162204163788
v 0.9302857375840858 -0.0007323006280189059 -0.6574022655280416
v 1.5967511335518196 0.008146714800674415 -0.5191162204163788
v 1.5751656688761813 -0.6252659045579136 -0.21878703763727714
v 0.8330099208918114 -0.502580139760525 -0.49581058606680983
v -0.19180623763690363 0.3292386922299002 1.6515121532098647
v -0.6313268559661012 0.5859596615589169 1.3966672687361665
v -0.6586020135204933 -0.09122767996573078 1.627160418192048
v 0.844280501046704 0.49228829460707857 -0.5016690281369236
v 0.0319307945347993 0.9161648217445872 -0.44948924229174025
v 0.650721828313209 0.8264391139549332 -0.05787016810097878
v 0.5345021366845728 -0.8524199435638664 -0.08336603706803469
v 0.5930918146910003 -0.7945234051803496 0.47445649436613024
v 0.1687259458238728 -0.9357994138200496 0.7276518219918486
v 0.8330099208918114 -0.502580139760525 -0.49581058606680983
v 0.011010166366706375 -0.9255126198030581 -0.43523761541091943
v 0.1684674358760212 -0.34527081893996225 -0.9313892562728512
v 0.0319307945347993 0.9161648217445872 -0.44948924229174025
v -0.8272699743595524 0.5459844522329007 -0.5549187271507847
v -0.7820593651824694 0.788602906290933 -0.09752784520737912
v -0.6313268559661012 0.5859596615589169 1.3966672687361665
v -1.1980341109272388 -0.004250958160698426 1.0605552683463912
v -0.7938094940473235 0.15629984089161297 1.5019530539172905
v 0.7504604863649078 0.14827679356729995 1.0789824326403021
v 0.6926435291516597 0.4993975114562801 0.9281004510186364
v 0.17436671226099598 0.6069099200542496 1.33424717994626
v 0.17990006473513986 0.008125010698719848 1.6113542782961332
v 0.7504604863649078 0.14827679356729995 1.0789824326403021
v 0.17436671226099598 0.6069099200542496 1.33424717994626
v 0.17990006473513986 0.008125010698719848 1.6113542782961332
v 0.7278435074660905 -0.27766810952072163 1.0685889462512534
v 0.7504604863649078 0.14827679356729995 1.0789824326403021
v 0.17990006473513986 0.008125010698719848 1.6113542782961332
v -0.19180623763690363 0.3292386922299002 1.6515121532098647
v -0.183779440616906 -0.35865908805356383 1.633437537623621
v -0.18761934805234226 -0.8769224395421986 1.0922297080419412
v 0.1857831826376799 -0.6116505662437817 1.32425665054501
v -0.183779440616906 -0.35865908805356383 1.633437537623621
v -1.1689658514735726 -0.49378848213417825 0.8135688182678962
v -0.35942356209334747 -1.0024200895364856 0.6879527758201718
v -0.6364321117401417 -0.5821978019130398 1.3986445309472089
v -1.1548598828746037 0.5691269554918605 0.7599831671375767
v -1.824542440426427 0.6067910637209337 0.5117095534806353
v -1.8151215555159865 0.1891649056086706 0.7529741483421333
v -1.759816559387076 0.5626664488816502 -0.5723347363939624
v -2.0259184684147726 -0.0006880335215222189 -0.6757679399669456
v -2.3247907075798935 0.0011597517418243247 -0.25271361414299065
v -1.904053925628972 -0.745657577187238 -0.1864879579142098
v -2.3247907075798935 0.0011597517418243247 -0.25271361414299065
v -1.7604012542028329 -0.5619206846636331 -0.5723027286823452
v -2.0259184684147726 -0.0006880335215222189 -0.6757679399669456
v -1.7604012542028329 -0.5619206846636331 -0.5723027286823452
v -2.3247907075798935 0.0011597517418243247 -0.25271361414299065
v 2.1536031574096057 0.006603609928668985 0.32126263851439063
v 1.7452175380194603 0.18888137191848386 0.9754968106410473
v 1.7300822715122877 -0.17157257046945062 1.0004755050857739
v 1.9148483073174702 0.32777087320987874 -0.20864985776665712
v 1.926837643573009 -0.331320456269129 -0.1915295461749249
v 1.5967511335518196 0.008146714800674415 -0.5191162204163788
v -0.763098481317229 -0.7828144069980567 -0.1270594562319154
v 0.011010166366706375 -0.9255126198030581 -0.43523761541091943
v -0.35942356209334747 -1.0024200895364856 0.6879527758201718
v -0.763098481317229 -0.7828144069980567 -0.1270594562319154
v -0.35942356209334747 -1.0024200895364856 0.6879527758201718
v -0.9207552739378997 -0.7902980264514241 0.38166093262491785
v -0.1523793214417335 1.0065196537339176 -0.002590489263389062
v 0.2007622375957645 0.923309190380138 0.7186161120071972
v 0.0319307945347993 0.9161648217445872 -0.44948924229174025
v 0.5947995626926286 0.7957697473294871 0.4737721169187026
v 0.2007622375957645 0.923309190380138 0.7186161120071972
v 0.6926435291516597 0.4993975114562801 0.9281004510186364
v -0.536200040124335 0.9063885017627911 0.7862696935864477
v -0.7820593651824694 0.788602906290933 -0.09752784520737912
v -0.9305072659971785 0.7953247318993704 0.2313369211837859
v 0.0319307945347993 0.9161648217445872 -0.44948924229174025
v -0.19603460581393506 0.3112448948269346 -0.9396965202216165
v -0.8272699743595524 0.5459844522329007 -0.5549187271507847
v 0.5930918146910003 -0.7945234051803496 0.47445649436613024
v 1.5091426766121003 -0.8021528890844039 0.3623802808967582
v 1.5299294432213628 -0.5290080464879239 0.869309036807266
v 0.5930918146910003 -0.7945234051803496 0.47445649436613024
v 1.5299294432213628 -0.5290080464879239 0.869309036807266
v 0.8030792572017873 -0.5194543888478123 0.8770168648685797
v -0.18761934805234226 -0.8769224395421986 1.0922297080419412
v -0.183779440616906 -0.35865908805356383 1.633437537623621
v -0.6364321117401417 -0.5821978019130398 1.3986445309472089
v 0.5345021366845728 -0.8524199435638664 -0.08336603706803469
v 1.5091426766121003 -0.8021528890844039 0.3623802808967582
v 0.5930918146910003 -0.7945234051803496 0.47445649436613024
v 0.8330099208918114 -0.502580139760525 -0.49581058606680983
v 1.5751656688761813 -0.6252659045579136 -0.21878703763727714
v 0.5345021366845728 -0.8524199435638664 -0.08336603706803469
v 0.5345021366845728 -0.8524199435638664 -0.08336603706803469
v 0.1687259458238728 -0.9357994138200496 0.7276518219918486
v 0.011010166366706375 -0.9255126198030581 -0.43523761541091943
v 0.8330099208918114 -0.502580139760525 -0.49581058606680983
v 0.5345021366845728 -0.8524199435638664 -0.08336603706803469
v 0.011010166366706375 -0.9255126198030581 -0.43523761541091943
v 0.7278435074660905 -0.27766810952072163 1.0685889462512534
v 0.8030792572017873 -0.5194543888478123 0.8770168648685797
v 1.5299294432213628 -0.5290080464879239 0.869309036807266
v 0.7278435074660905 -0.27766810952072163 1.0685889462512534
v 1.5299294432213628 -0.5290080464879239 0.869309036807266
v 1.7300822715122877 -0.17157257046945062 1.0004755050857739
v 0.8030792572017873 -0.5194543888478123 0.8770168648685797
v 0.1687259458238728 -0.9357994138200496 0.7276518219918486
v 0.5930918146910003 -0.7945234051803496 0.47445649436613024
v -2.2766494599570137 -0.2116013192647781 0.3003073546537074
v -2.3247907075798935 0.0011597517418243247 -0.25271361414299065
v -1.904053925628972 -0.745657577187238 -0.1864879579142098
v -2.2766494599570137 -0.2116013192647781 0.3003073546537074
v -1.904053925628972 -0.745657577187238 -0.1864879579142098
v -1.9680202806805767 -0.6344455719315292 0.35222239394378363
v 0.1857831826376799 -0.6116505662437817 1.32425665054501
v 0.17990006473513986 0.008125010698719848 1.6113542782961332
v -0.183779440616906 -0.35865908805356383 1.633437537623621
v -1.1689658514735726 -0.49378848213417825 0.8135688182678962
v -0.6364321117401417 -0.5821978019130398 1.3986445309472089
v -1.1980341109272388 -0.004250958160698426 1.0605552683463912
v -0.19603460581393506 0.3112448948269346 -0.9396965202216165
v -0.18520888646253297 -0.31060613223422706 -0.9464455601162598
v -0.8528327451135311 2.7992482131506237e-9 -0.7972790062853221
v -1.5286450113799788 0 -0.829301201263128
v -0.8154505212239656 -0.5534939458750472 -0.5484258520334961
v -1.7604012542028329 -0.5619206846636331 -0.5723027286823452
v -1.904053925628972 -0.745657577187238 -0.1864879579142098
v -1.6287725553964947 -0.7709089299161107 0.31454215300338007
v -1.9680202806805767 -0.6344455719315292 0.35222239394378363
v -1.6287725553964947 -0.7709089299161107 0.31454215300338007
v -1.1689658514735726 -0.49378848213417825 0.8135688182678962
v -1.9680202806805767 -0.6344455719315292 0.35222239394378363
v -1.824542440426427 0.6067910637209337 0.5117095534806353
v -1.6017064014984754 0.8377855126988578 -0.04556929785036434
v -2.0516730792696194 0.6673285733372225 0.009130708718104508
v -1.759816559387076 0.5626664488816502 -0.5723347363939624
v -1.5286450113799788 0 -0.829301201263128
v -2.0259184684147726 -0.0006880335215222189 -0.6757679399669456
v -1.854835033506106 -0.16118673809839734 0.7460822849871178
v -1.8151215555159865 0.1891649056086706 0.7529741483421333
v -2.2804479145710843 0.19125607610099138 0.31607122993846914
v -1.854835033506106 -0.16118673809839734 0.7460822849871178
v -2.2804479145710843 0.19125607610099138 0.31607122993846914
v -2.2766494599570137 -0.2116013192647781 0.3003073546537074
v -0.9305072659971785 0.7953247318993704 0.2313369211837859
v -0.7820593651824694 0.788602906290933 -0.09752784520737912
v -1.6017064014984754 0.8377855126988578 -0.04556929785036434
v -1.7604012542028329 -0.5619206846636331 -0.5723027286823452
v -0.8154505212239656 -0.5534939458750472 -0.5484258520334961
v -0.763098481317229 -0.7828144069980567 -0.1270594562319154
v -1.7604012542028329 -0.5619206846636331 -0.5723027286823452
v -0.763098481317229 -0.7828144069980567 -0.1270594562319154
v -1.904053925628972 -0.745657577187238 -0.1864879579142098
v -1.904053925628972 -0.745657577187238 -0.1864879579142098
v -0.763098481317229 -0.7828144069980567 -0.1270594562319154
v -0.9207552739378997 -0.7902980264514241 0.38166093262491785
v -1.904053925628972 -0.745657577187238 -0.1864879579142098
v -0.9207552739378997 -0.7902980264514241 0.38166093262491785
v -1.6287725553964947 -0.7709089299161107 0.31454215300338007
v -0.18520888646253297 -0.31060613223422706 -0.9464455601162598
v -0.19603460581393506 0.3112448948269346 -0.9396965202216165
v 0.1711526560949821 0.34138458794443594 -0.9334803236807545
v -0.18520888646253297 -0.31060613223422706 -0.9464455601162598
v 0.1711526560949821 0.34138458794443594 -0.9334803236807545
v 0.1684674358760212 -0.34527081893996225 -0.9313892562728512
v -0.8528327451135311 2.7992482131506237e-9 -0.7972790062853221
v -0.18520888646253297 -0.31060613223422706 -0.9464455601162598
v -0.8154505212239656 -0.5534939458750472 -0.5484258520334961
v -0.1523793214417335 1.0065196537339176 -0.002590489263389062
v -0.7820593651824694 0.788602906290933 -0.09752784520737912
v -0.536200040124335 0.9063885017627911 0.7862696935864477
v -0.1523793214417335 1.0065196537339176 -0.002590489263389062
v -0.536200040124335 0.9063885017627911 0.7862696935864477
v -0.18998170787586055 0.9179247820036522 1.0192806799384613
v 0.17436671226099598 0.6069099200542496 1.33424717994626
v 0.2007622375957645 0.923309190380138 0.7186161120071972
v -0.18998170787586055 0.9179247820036522 1.0192806799384613
v -0.9305072659971785 0.7953247318993704 0.2313369211837859
v -1.6017064014984754 0.8377855126988578 -0.04556929785036434
v -1.824542440426427 0.6067910637209337 0.5117095534806353
v -0.9305072659971785 0.7953247318993704 0.2313369211837859
v -1.824542440426427 0.6067910637209337 0.5117095534806353
v -1.1548598828746037 0.5691269554918605 0.7599831671375767
v 1.9394085821117812 0.5541281212111784 0.33836648237043576
v 1.9148483073174702 0.32777087320987874 -0.20864985776665712
v 1.5768017216654755 0.622957895993494 -0.2044564094360357
v 1.7452175380194603 0.18888137191848386 0.9754968106410473
v 0.7504604863649078 0.14827679356729995 1.0789824326403021
v 1.7300822715122877 -0.17157257046945062 1.0004755050857739
v 1.5190231118555175 0.5337432292033313 0.8647985781218921
v 0.6926435291516597 0.4993975114562801 0.9281004510186364
v 0.7504604863649078 0.14827679356729995 1.0789824326403021
v 0.5947995626926286 0.7957697473294871 0.4737721169187026
v 0.650721828313209 0.8264391139549332 -0.05787016810097878
v 0.2007622375957645 0.923309190380138 0.7186161120071972
v 0.7278435074660905 -0.27766810952072163 1.0685889462512534
v 0.1857831826376799 -0.6116505662437817 1.32425665054501
v 0.1687259458238728 -0.9357994138200496 0.7276518219918486
v 0.1687259458238728 -0.9357994138200496 0.7276518219918486
v 0.8030792572017873 -0.5194543888478123 0.8770168648685797
v 0.7278435074660905 -0.27766810952072163 1.0685889462512534
v -0.19180623763690363 0.3292386922299002 1.6515121532098647
v 0.17990006473513986 0.008125010698719848 1.6113542782961332
v 0.17436671226099598 0.6069099200542496 1.33424717994626
v 0.011010166366706375 -0.9255126198030581 -0.43523761541091943
v 0.1687259458238728 -0.9357994138200496 0.7276518219918486
v -0.35942356209334747 -1.0024200895364856 0.6879527758201718
v -1.8151215555159865 0.1891649056086706 0.7529741483421333
v -1.854835033506106 -0.16118673809839734 0.7460822849871178
v -1.1980341109272388 -0.004250958160698426 1.0605552683463912
v -0.8272699743595524 0.5459844522329007 -0.5549187271507847
v -0.19603460581393506 0.3112448948269346 -0.9396965202216165
v -0.8528327451135311 2.7992482131506237e-9 -0.7972790062853221
v -1.759816559387076 0.5626664488816502 -0.5723347363939624
v -1.6017064014984754 0.8377855126988578 -0.04556929785036434
v -0.7820593651824694 0.788602906290933 -0.09752784520737912
v -1.759816559387076 0.5626664488816502 -0.5723347363939624
v -0.7820593651824694 0.788602906290933 -0.09752784520737912
v -0.8272699743595524 0.5459844522329007 -0.5549187271507847
v -1.759816559387076 0.5626664488816502 -0.5723347363939624
v -0.8272699743595524 0.5459844522329007 -0.5549187271507847
v -1.5286450113799788 0 -0.829301201263128
v -1.824542440426427 0.6067910637209337 0.5117095534806353
v -2.2804479145710843 0.19125607610099138 0.31607122993846914
v -1.8151215555159865 0.1891649056086706 0.7529741483421333
v -2.0516730792696194 0.6673285733372225 0.009130708718104508
v -1.759816559387076 0.5626664488816502 -0.5723347363939624
v -2.3247907075798935 0.0011597517418243247 -0.25271361414299065
v -1.854835033506106 -0.16118673809839734 0.7460822849871178
v -2.2766494599570137 -0.2116013192647781 0.3003073546537074
v -1.9680202806805767 -0.6344455719315292 0.35222239394378363
vn 0.2747329259984771 0.9514939641589581 0.13849568780791097
vn 0.2741552307665301 0.6604995640190379 0.6989844314246288
vn 0.7555955647884287 0.6462451305358965 0.10696996648918554
vn 0.99571081999298 0.006531052487090936 0.09228926428528136
vn 0.7518192680652502 -0.36699793550356674 -0.5477958593326087
vn 0.7370957793215189 0.3715998260656645 -0.5644496269591914
vn 0.3596959152718236 0.7488730630266659 -0.5566039741232759
vn 0.4045350568966964 0.008362324328207887 -0.9144842586252738
vn 0.2904845278273459 0.6033093518318532 -0.7427224010928666
vn 0.19776269009183958 0.9553952434238915 -0.2193395706447923
vn 0.3596959152718236 0.7488730630266659 -0.5566039741232759
vn 0.2904845278273459 0.6033093518318532 -0.7427224010928666
vn 0.3596959152718236 0.7488730630266659 -0.5566039741232759
vn 0.19776269009183958 0.9553952434238915 -0.2193395706447923
vn 0.2747329259984771 0.9514939641589581 0.13849568780791097
vn 0.2747329259984771 0.9514939641589581 0.13849568780791097
vn 0.19776269009183958 0.9553952434238915 -0.2193395706447923
vn 0.248395905893148 0.9332166387702213 0.2596269998631357
vn 0.19776269009183958 0.9553952434238915 -0.2193395706447923
vn 0.0543538825765485 0.8794281033538582 -0.4729184564809144
vn 0.296803792122927 0.9263329785841391 0.23198000295044222
vn 0.296803792122927 0.9263329785841391 0.23198000295044222
vn -0.01400820350766198 0.995009712804055 -0.0987898864260907
vn -0.013642189995886757 0.9207104425356928 0.39000791230159
vn 0.33088839407339316 0.6698948805160354 0.6646455594720674
vn 0.296803792122927 0.9263329785841391 0.23198000295044222
vn 0.38115957475978934 0.6369445340092951 0.6700888293089345
vn 0.38115957475978934 0.6369445340092951 0.6700888293089345
vn -0.013642189995886757 0.9207104425356928 0.39000791230159
vn 0.04574785847191484 0.3769086369138948 0.9251199991703473
vn -0.013642189995886757 0.9207104425356928 0.39000791230159
vn -0.38463508764694904 0.6312312431583716 0.6735005323023587
vn 0.04574785847191484 0.3769086369138948 0.9251199991703473
vn -0.38463508764694904 0.6312312431583716 0.6735005323023587
vn -0.013642189995886757 0.9207104425356928 0.39000791230159
vn -0.33241095004100785 0.9257272761920824 0.18036621193234192
vn -0.33241095004100785 0.9257272761920824 0.18036621193234192
vn -0.40993858815712797 0.7349412163682604 0.5401960407323275
vn -0.38463508764694904 0.6312312431583716 0.6735005323023587
vn -0.40993858815712797 0.7349412163682604 0.5401960407323275
vn -0.33241095004100785 0.9257272761920824 0.18036621193234192
vn -0.14450876228801396 0.9851011087346033 0.09323638341249241
vn 0.029054401346266762 -0.8954066030513765 -0.44430041298023204
vn -0.15238381427139921 -0.6945015562430153 -0.7031690845907046
vn -0.1369094977519624 -0.33662771683829185 -0.9316316706089077
vn -0.17078499822908813 -0.9522880859284725 -0.25294245546878164
vn -0.15238381427139921 -0.6945015562430153 -0.7031690845907046
vn 0.029054401346266762 -0.8954066030513765 -0.44430041298023204
vn 0.01434413387301516 -0.8769454030720495 0.4803759005760317
vn -0.4129228758467767 -0.6402593781176495 0.6477365416084135
vn -0.17768330746507371 -0.973778993752922 0.142067285374989
vn -0.4129228758467767 -0.6402593781176495 0.6477365416084135
vn 0.08038688708248685 -0.40196496788986746 0.912119571643151
vn -0.4268135736008241 -0.09970682136687102 0.8988263031103444
vn 0.04574785847191484 0.3769086369138948 0.9251199991703473
vn -0.4268135736008241 -0.09970682136687102 0.8988263031103444
vn 0.08038688708248685 -0.40196496788986746 0.912119571643151
vn -0.38463508764694904 0.6312312431583716 0.6735005323023587
vn -0.5904835542288859 0.244915801612969 0.7689898713933097
vn -0.4268135736008241 -0.09970682136687102 0.8988263031103444
vn 0.36678042619897705 -0.3589674792467808 0.8582624702272079
vn 0.44976790675896633 0.00579873086210862 0.8931266454260821
vn 0.42024842424523995 -0.6405660589306756 0.6427024086351437
vn 0.3810589169192024 0.2055752646553411 0.9014060751948875
vn 0.36678042619897705 -0.3589674792467808 0.8582624702272079
vn 0.5158313154476202 -0.2399705034690174 0.8223941946952228
vn 0.3218550019037416 -0.006714213499762497 -0.9467651646985233
vn 0.1888858444709069 -0.360222919993394 -0.9135434229799617
vn 0.18702152058415047 0.3530153275061587 -0.9167350377203392
vn 0.2904845278273459 0.6033093518318532 -0.7427224010928666
vn 0.3218550019037416 -0.006714213499762497 -0.9467651646985233
vn 0.18702152058415047 0.3530153275061587 -0.9167350377203392
vn 0.0543538825765485 0.8794281033538582 -0.4729184564809144
vn 0.2904845278273459 0.6033093518318532 -0.7427224010928666
vn 0.18702152058415047 0.3530153275061587 -0.9167350377203392
vn 0.4045350568966964 0.008362324328207887 -0.9144842586252738
vn 0.28099579957076865 -0.6020640379007508 -0.7473688880935757
vn 0.3218550019037416 -0.006714213499762497 -0.9467651646985233
vn 0.3218550019037416 -0.006714213499762497 -0.9467651646985233
vn 0.28099579957076865 -0.6020640379007508 -0.7473688880935757
vn 0.1888858444709069 -0.360222919993394 -0.9135434229799617
vn 0.7582254661884348 -0.6418853110960745 0.11435641574667554
vn 0.27659655318031207 -0.9510733893508219 0.13767263648783193
vn 0.3655616524308937 -0.7359758980475337 -0.5698281809151953
vn 0.7518192680652502 -0.36699793550356674 -0.5477958593326087
vn 0.7582254661884348 -0.6418853110960745 0.11435641574667554
vn 0.3655616524308937 -0.7359758980475337 -0.5698281809151953
vn 0.2813893280114097 -0.6872979919326294 0.6696577606260249
vn 0.27659655318031207 -0.9510733893508219 0.13767263648783193
vn 0.7582254661884348 -0.6418853110960745 0.11435641574667554
vn 0.21342267267220139 -0.9550458865472048 -0.20576228366422736
vn 0.3655616524308937 -0.7359758980475337 -0.5698281809151953
vn 0.27659655318031207 -0.9510733893508219 0.13767263648783193
vn 0.29731846911073595 -0.9249163267242381 0.236920907656101
vn 0.01434413387301516 -0.8769454030720495 0.4803759005760317
vn -0.17768330746507371 -0.973778993752922 0.142067285374989
vn -0.15869924411749128 -0.0028382748934387848 -0.9873228925291697
vn -0.15238381427139921 -0.6945015562430153 -0.7031690845907046
vn -0.09067330883141156 -0.0007019475164196826 -0.9958804437959646
vn -0.14517950474322713 0.6895797593475822 -0.7095087504045612
vn -0.15869924411749128 -0.0028382748934387848 -0.9873228925291697
vn -0.09067330883141156 -0.0007019475164196826 -0.9958804437959646
vn -0.09067330883141156 -0.0007019475164196826 -0.9958804437959646
vn -0.3113883292559593 -0.6361136143997344 -0.7059722218178903
vn -0.6233240536584322 -0.001129210267442518 -0.7819628181793505
vn -0.42412145379640065 -0.6686085218805089 0.6108057276240855
vn -0.531768574483607 -0.24568050259891783 0.8104710197375448
vn -0.5973794925261856 -0.6996487225552238 0.39195587371029506
vn -0.6641284370270968 0.7463166800535845 -0.04410025176505468
vn -0.15256620998614098 0.9849508440282925 -0.08121198445069175
vn -0.32829914531794907 0.6517151799587549 -0.683730206583585
vn 0.248395905893148 0.9332166387702213 0.2596269998631357
vn 0.33088839407339316 0.6698948805160354 0.6646455594720674
vn 0.2741552307665301 0.6604995640190379 0.6989844314246288
vn 0.248395905893148 0.9332166387702213 0.2596269998631357
vn 0.2741552307665301 0.6604995640190379 0.6989844314246288
vn 0.2747329259984771 0.9514939641589581 0.13849568780791097
vn -0.8877653765971116 0.259990814626031 0.3798386663117403
vn -0.9482882327555461 -0.019379603367868148 -0.316818336891455
vn -0.8962629958098782 -0.28874398094921716 0.33665940623648166
vn -0.6641284370270968 0.7463166800535845 -0.04410025176505468
vn -0.8877653765971116 0.259990814626031 0.3798386663117403
vn -0.4127149048182813 0.7151934016456954 0.5640609945593615
vn -0.8877653765971116 0.259990814626031 0.3798386663117403
vn -0.6641284370270968 0.7463166800535845 -0.04410025176505468
vn -0.9482882327555461 -0.019379603367868148 -0.316818336891455
vn -0.23081664952256872 -0.9626058402762759 0.14182267297290854
vn -0.42412145379640065 -0.6686085218805089 0.6108057276240855
vn -0.17191491717831198 -0.9360558225499999 0.3069930916516154
vn -0.5904835542288859 0.244915801612969 0.7689898713933097
vn -0.6084897358375745 0.002594123060682978 0.7935575038432091
vn -0.4268135736008241 -0.09970682136687102 0.8988263031103444
vn -0.40993858815712797 0.7349412163682604 0.5401960407323275
vn -0.6084897358375745 0.002594123060682978 0.7935575038432091
vn -0.38463508764694904 0.6312312431583716 0.6735005323023587
vn -0.40993858815712797 0.7349412163682604 0.5401960407323275
vn -0.5087274824441801 0.25157123385846697 0.823351846357883
vn -0.6084897358375745 0.002594123060682978 0.7935575038432091
vn -0.531768574483607 -0.24568050259891783 0.8104710197375448
vn -0.42412145379640065 -0.6686085218805089 0.6108057276240855
vn -0.6084897358375745 0.002594123060682978 0.7935575038432091
vn -0.6084897358375745 0.002594123060682978 0.7935575038432091
vn -0.4129228758467767 -0.6402593781176495 0.6477365416084135
vn -0.4268135736008241 -0.09970682136687102 0.8988263031103444
vn 0.42024842424523995 -0.6405660589306756 0.6427024086351437
vn 0.01434413387301516 -0.8769454030720495 0.4803759005760317
vn 0.29731846911073595 -0.9249163267242381 0.236920907656101
vn -0.17768330746507371 -0.973778993752922 0.142067285374989
vn -0.42412145379640065 -0.6686085218805089 0.6108057276240855
vn -0.23081664952256872 -0.9626058402762759 0.14182267297290854
vn 0.1888858444709069 -0.360222919993394 -0.9135434229799617
vn 0.029054401346266762 -0.8954066030513765 -0.44430041298023204
vn -0.1369094977519624 -0.33662771683829185 -0.9316316706089077
vn 0.0543538825765485 0.8794281033538582 -0.4729184564809144
vn 0.18702152058415047 0.3530153275061587 -0.9167350377203392
vn -0.139442545145782 0.34096127012491406 -0.9296780027934791
vn -0.13776489442450227 0.9594406032996183 -0.24595642419800748
vn -0.01400820350766198 0.995009712804055 -0.0987898864260907
vn 0.0543538825765485 0.8794281033538582 -0.4729184564809144
vn 0.2747329259984771 0.9514939641589581 0.13849568780791097
vn 0.7555955647884287 0.6462451305358965 0.10696996648918554
vn 0.3596959152718236 0.7488730630266659 -0.5566039741232759
vn 0.99571081999298 0.006531052487090936 0.09228926428528136
vn 0.7370957793215189 0.3715998260656645 -0.5644496269591914
vn 0.7555955647884287 0.6462451305358965 0.10696996648918554
vn 0.99571081999298 0.006531052487090936 0.09228926428528136
vn 0.7582254661884348 -0.6418853110960745 0.11435641574667554
vn 0.7518192680652502 -0.36699793550356674 -0.5477958593326087
vn 0.99571081999298 0.006531052487090936 0.09228926428528136
vn 0.7555955647884287 0.6462451305358965 0.10696996648918554
vn 0.537376552610809 0.2617299708582921 0.8017006068718173
vn 0.7582254661884348 -0.6418853110960745 0.11435641574667554
vn 0.99571081999298 0.006531052487090936 0.09228926428528136
vn 0.5158313154476202 -0.2399705034690174 0.8223941946952228
vn 0.2741552307665301 0.6604995640190379 0.6989844314246288
vn 0.537376552610809 0.2617299708582921 0.8017006068718173
vn 0.7555955647884287 0.6462451305358965 0.10696996648918554
vn 0.3596959152718236 0.7488730630266659 -0.5566039741232759
vn 0.7370957793215189 0.3715998260656645 -0.5644496269591914
vn 0.4045350568966964 0.008362324328207887 -0.9144842586252738
vn 0.2813893280114097 -0.6872979919326294 0.6696577606260249
vn 0.7582254661884348 -0.6418853110960745 0.11435641574667554
vn 0.5158313154476202 -0.2399705034690174 0.8223941946952228
vn 0.4045350568966964 0.008362324328207887 -0.9144842586252738
vn 0.7518192680652502 -0.36699793550356674 -0.5477958593326087
vn 0.3655616524308937 -0.7359758980475337 -0.5698281809151953
vn 0.537376552610809 0.2617299708582921 0.8017006068718173
vn 0.2741552307665301 0.6604995640190379 0.6989844314246288
vn 0.3810589169192024 0.2055752646553411 0.9014060751948875
vn 0.2904845278273459 0.6033093518318532 -0.7427224010928666
vn 0.4045350568966964 0.008362324328207887 -0.9144842586252738
vn 0.3218550019037416 -0.006714213499762497 -0.9467651646985233
vn 0.4045350568966964 0.008362324328207887 -0.9144842586252738
vn 0.3655616524308937 -0.7359758980475337 -0.5698281809151953
vn 0.28099579957076865 -0.6020640379007508 -0.7473688880935757
vn 0.04574785847191484 0.3769086369138948 0.9251199991703473
vn -0.38463508764694904 0.6312312431583716 0.6735005323023587
vn -0.4268135736008241 -0.09970682136687102 0.8988263031103444
vn 0.2904845278273459 0.6033093518318532 -0.7427224010928666
vn 0.0543538825765485 0.8794281033538582 -0.4729184564809144
vn 0.19776269009183958 0.9553952434238915 -0.2193395706447923
vn 0.21342267267220139 -0.9550458865472048 -0.20576228366422736
vn 0.24153061030502995 -0.9413711969567254 0.23554879287727604
vn 0.29731846911073595 -0.9249163267242381 0.236920907656101
vn 0.28099579957076865 -0.6020640379007508 -0.7473688880935757
vn 0.029054401346266762 -0.8954066030513765 -0.44430041298023204
vn 0.1888858444709069 -0.360222919993394 -0.9135434229799617
vn 0.0543538825765485 0.8794281033538582 -0.4729184564809144
vn -0.14517950474322713 0.6895797593475822 -0.7095087504045612
vn -0.13776489442450227 0.9594406032996183 -0.24595642419800748
vn -0.38463508764694904 0.6312312431583716 0.6735005323023587
vn -0.6084897358375745 0.002594123060682978 0.7935575038432091
vn -0.5904835542288859 0.244915801612969 0.7689898713933097
vn 0.3810589169192024 0.2055752646553411 0.9014060751948875
vn 0.33088839407339316 0.6698948805160354 0.6646455594720674
vn 0.38115957475978934 0.6369445340092951 0.6700888293089345
vn 0.44976790675896633 0.00579873086210862 0.8931266454260821
vn 0.3810589169192024 0.2055752646553411 0.9014060751948875
vn 0.38115957475978934 0.6369445340092951 0.6700888293089345
vn 0.44976790675896633 0.00579873086210862 0.8931266454260821
vn 0.36678042619897705 -0.3589674792467808 0.8582624702272079
vn 0.3810589169192024 0.2055752646553411 0.9014060751948875
vn 0.44976790675896633 0.00579873086210862 0.8931266454260821
vn 0.04574785847191484 0.3769086369138948 0.9251199991703473
vn 0.08038688708248685 -0.40196496788986746 0.912119571643151
vn 0.01434413387301516 -0.8769454030720495 0.4803759005760317
vn 0.42024842424523995 -0.6405660589306756 0.6427024086351437
vn 0.08038688708248685 -0.40196496788986746 0.912119571643151
vn -0.42412145379640065 -0.6686085218805089 0.6108057276240855
vn -0.17768330746507371 -0.973778993752922 0.142067285374989
vn -0.4129228758467767 -0.6402593781176495 0.6477365416084135
vn -0.40993858815712797 0.7349412163682604 0.5401960407323275
vn -0.4127149048182813 0.7151934016456954 0.5640609945593615
vn -0.5087274824441801 0.25157123385846697 0.823351846357883
vn -0.32829914531794907 0.6517151799587549 -0.683730206583585
vn -0.6233240536584322 -0.001129210267442518 -0.7819628181793505
vn -0.9482882327555461 -0.019379603367868148 -0.316818336891455
vn -0.48669185659158837 -0.8359856590843436 -0.25349361832746076
vn -0.9482882327555461 -0.019379603367868148 -0.316818336891455
vn -0.3113883292559593 -0.6361136143997344 -0.7059722218178903
vn -0.6233240536584322 -0.001129210267442518 -0.7819628181793505
vn -0.3113883292559593 -0.6361136143997344 -0.7059722218178903
vn -0.9482882327555461 -0.019379603367868148 -0.316818336891455
vn 0.99571081999298 0.006531052487090936 0.09228926428528136
vn 0.537376552610809 0.2617299708582921 0.8017006068718173
vn 0.5158313154476202 -0.2399705034690174 0.8223941946952228
vn 0.7370957793215189 0.3715998260656645 -0.5644496269591914
vn 0.7518192680652502 -0.36699793550356674 -0.5477958593326087
vn 0.4045350568966964 0.008362324328207887 -0.9144842586252738
vn -0.17078499822908813 -0.9522880859284725 -0.25294245546878164
vn 0.029054401346266762 -0.8954066030513765 -0.44430041298023204
vn -0.17768330746507371 -0.973778993752922 0.142067285374989
vn -0.17078499822908813 -0.9522880859284725 -0.25294245546878164
vn -0.17768330746507371 -0.973778993752922 0.142067285374989
vn -0.23081664952256872 -0.9626058402762759 0.14182267297290854
vn -0.01400820350766198 0.995009712804055 -0.0987898864260907
vn 0.296803792122927 0.9263329785841391 0.23198000295044222
vn 0.0543538825765485 0.8794281033538582 -0.4729184564809144
vn 0.248395905893148 0.9332166387702213 0.2596269998631357
vn 0.296803792122927 0.9263329785841391 0.23198000295044222
vn 0.33088839407339316 0.6698948805160354 0.6646455594720674
vn -0.33241095004100785 0.9257272761920824 0.18036621193234192
vn -0.13776489442450227 0.9594406032996183 -0.24595642419800748
vn -0.14450876228801396 0.9851011087346033 0.09323638341249241
vn 0.0543538825765485 0.8794281033538582 -0.4729184564809144
vn -0.139442545145782 0.34096127012491406 -0.9296780027934791
vn -0.14517950474322713 0.6895797593475822 -0.7095087504045612
vn 0.24153061030502995 -0.9413711969567254 0.23554879287727604
vn 0.27659655318031207 -0.9510733893508219 0.13767263648783193
vn 0.2813893280114097 -0.6872979919326294 0.6696577606260249
vn 0.24153061030502995 -0.9413711969567254 0.23554879287727604
vn 0.2813893280114097 -0.6872979919326294 0.6696577606260249
vn 0.1416388467858501 -0.6925380174689596 0.7073397567232722
vn 0.01434413387301516 -0.8769454030720495 0.4803759005760317
vn 0.08038688708248685 -0.40196496788986746 0.912119571643151
vn -0.4129228758467767 -0.6402593781176495 0.6477365416084135
vn 0.21342267267220139 -0.9550458865472048 -0.20576228366422736
vn 0.27659655318031207 -0.9510733893508219 0.13767263648783193
vn 0.24153061030502995 -0.9413711969567254 0.23554879287727604
vn 0.28099579957076865 -0.6020640379007508 -0.7473688880935757
vn 0.3655616524308937 -0.7359758980475337 -0.5698281809151953
vn 0.21342267267220139 -0.9550458865472048 -0.20576228366422736
vn 0.21342267267220139 -0.9550458865472048 -0.20576228366422736
vn 0.29731846911073595 -0.9249163267242381 0.236920907656101
vn 0.029054401346266762 -0.8954066030513765 -0.44430041298023204
vn 0.28099579957076865 -0.6020640379007508 -0.7473688880935757
vn 0.21342267267220139 -0.9550458865472048 -0.20576228366422736
vn 0.029054401346266762 -0.8954066030513765 -0.44430041298023204
vn 0.36678042619897705 -0.3589674792467808 0.8582624702272079
vn 0.1416388467858501 -0.6925380174689596 0.7073397567232722
vn 0.2813893280114097 -0.6872979919326294 0.6696577606260249
vn 0.36678042619897705 -0.3589674792467808 0.8582624702272079
vn 0.2813893280114097 -0.6872979919326294 0.6696577606260249
vn 0.5158313154476202 -0.2399705034690174 0.8223941946952228
vn 0.1416388467858501 -0.6925380174689596 0.7073397567232722
vn 0.29731846911073595 -0.9249163267242381 0.236920907656101
vn 0.24153061030502995 -0.9413711969567254 0.23554879287727604
vn -0.8962629958098782 -0.28874398094921716 0.33665940623648166
vn -0.9482882327555461 -0.019379603367868148 -0.316818336891455
vn -0.48669185659158837 -0.8359856590843436 -0.25349361832746076
vn -0.8962629958098782 -0.28874398094921716 0.33665940623648166
vn -0.48669185659158837 -0.8359856590843436 -0.25349361832746076
vn -0.5973794925261856 -0.6996487225552238 0.39195587371029506
vn 0.42024842424523995 -0.6405660589306756 0.6427024086351437
vn 0.44976790675896633 0.00579873086210862 0.8931266454260821
vn 0.08038688708248685 -0.40196496788986746 0.912119571643151
vn -0.42412145379640065 -0.6686085218805089 0.6108057276240855
vn -0.4129228758467767 -0.6402593781176495 0.6477365416084135
vn -0.6084897358375745 0.002594123060682978 0.7935575038432091
vn -0.139442545145782 0.34096127012491406 -0.9296780027934791
vn -0.1369094977519624 -0.33662771683829185 -0.9316316706089077
vn -0.15869924411749128 -0.0028382748934387848 -0.9873228925291697
vn -0.09067330883141156 -0.0007019475164196826 -0.9958804437959646
vn -0.15238381427139921 -0.6945015562430153 -0.7031690845907046
vn -0.3113883292559593 -0.6361136143997344 -0.7059722218178903
vn -0.48669185659158837 -0.8359856590843436 -0.25349361832746076
vn -0.17191491717831198 -0.9360558225499999 0.3069930916516154
vn -0.5973794925261856 -0.6996487225552238 0.39195587371029506
vn -0.17191491717831198 -0.9360558225499999 0.3069930916516154
vn -0.42412145379640065 -0.6686085218805089 0.6108057276240855
vn -0.5973794925261856 -0.6996487225552238 0.39195587371029506
vn -0.4127149048182813 0.7151934016456954 0.5640609945593615
vn -0.15256620998614098 0.9849508440282925 -0.08121198445069175
vn -0.6641284370270968 0.7463166800535845 -0.04410025176505468
vn -0.32829914531794907 0.6517151799587549 -0.683730206583585
vn -0.09067330883141156 -0.0007019475164196826 -0.9958804437959646
vn -0.6233240536584322 -0.001129210267442518 -0.7819628181793505
vn -0.531768574483607 -0.24568050259891783 0.8104710197375448
vn -0.5087274824441801 0.25157123385846697 0.823351846357883
vn -0.8877653765971116 0.259990814626031 0.3798386663117403
vn -0.531768574483607 -0.24568050259891783 0.8104710197375448
vn -0.8877653765971116 0.259990814626031 0.3798386663117403
vn -0.8962629958098782 -0.28874398094921716 0.33665940623648166
vn -0.14450876228801396 0.9851011087346033 0.09323638341249241
vn -0.13776489442450227 0.9594406032996183 -0.24595642419800748
vn -0.15256620998614098 0.9849508440282925 -0.08121198445069175
vn -0.3113883292559593 -0.6361136143997344 -0.7059722218178903
vn -0.15238381427139921 -0.6945015562430153 -0.7031690845907046
vn -0.17078499822908813 -0.9522880859284725 -0.25294245546878164
vn -0.3113883292559593 -0.6361136143997344 -0.7059722218178903
vn -0.17078499822908813 -0.9522880859284725 -0.25294245546878164
vn -0.48669185659158837 -0.8359856590843436 -0.25349361832746076
vn -0.48669185659158837 -0.8359856590843436 -0.25349361832746076
vn -0.17078499822908813 -0.9522880859284725 -0.25294245546878164
vn -0.23081664952256872 -0.9626058402762759 0.14182267297290854
vn -0.48669185659158837 -0.8359856590843436 -0.25349361832746076
vn -0.23081664952256872 -0.9626058402762759 0.14182267297290854
vn -0.17191491717831198 -0.9360558225499999 0.3069930916516154
vn -0.1369094977519624 -0.33662771683829185 -0.9316316706089077
vn -0.139442545145782 0.34096127012491406 -0.9296780027934791
vn 0.18702152058415047 0.3530153275061587 -0.9167350377203392
vn -0.1369094977519624 -0.33662771683829185 -0.9316316706089077
vn 0.18702152058415047 0.3530153275061587 -0.9167350377203392
vn 0.1888858444709069 -0.360222919993394 -0.9135434229799617
vn -0.15869924411749128 -0.0028382748934387848 -0.9873228925291697
vn -0.1369094977519624 -0.33662771683829185 -0.9316316706089077
vn -0.15238381427139921 -0.6945015562430153 -0.7031690845907046
vn -0.01400820350766198 0.995009712804055 -0.0987898864260907
vn -0.13776489442450227 0.9594406032996183 -0.24595642419800748
vn -0.33241095004100785 0.9257272761920824 0.18036621193234192
vn -0.01400820350766198 0.995009712804055 -0.0987898864260907
vn -0.33241095004100785 0.9257272761920824 0.18036621193234192
vn -0.013642189995886757 0.9207104425356928 0.39000791230159
vn 0.38115957475978934 0.6369445340092951 0.6700888293089345
vn 0.296803792122927 0.9263329785841391 0.23198000295044222
vn -0.013642189995886757 0.9207104425356928 0.39000791230159
vn -0.14450876228801396 0.9851011087346033 0.09323638341249241
vn -0.15256620998614098 0.9849508440282925 -0.08121198445069175
vn -0.4127149048182813 0.7151934016456954 0.5640609945593615
vn -0.14450876228801396 0.9851011087346033 0.09323638341249241
vn -0.4127149048182813 0.7151934016456954 0.5640609945593615
vn -0.40993858815712797 0.7349412163682604 0.5401960407323275
vn 0.7555955647884287 0.6462451305358965 0.10696996648918554
vn 0.7370957793215189 0.3715998260656645 -0.5644496269591914
vn 0.3596959152718236 0.7488730630266659 -0.5566039741232759
vn 0.537376552610809 0.2617299708582921 0.8017006068718173
vn 0.3810589169192024 0.2055752646553411 0.9014060751948875
vn 0.5158313154476202 -0.2399705034690174 0.8223941946952228
vn 0.2741552307665301 0.6604995640190379 0.6989844314246288
vn 0.33088839407339316 0.6698948805160354 0.6646455594720674
vn 0.3810589169192024 0.2055752646553411 0.9014060751948875
vn 0.248395905893148 0.9332166387702213 0.2596269998631357
vn 0.19776269009183958 0.9553952434238915 -0.2193395706447923
vn 0.296803792122927 0.9263329785841391 0.23198000295044222
vn 0.36678042619897705 -0.3589674792467808 0.8582624702272079
vn 0.42024842424523995 -0.6405660589306756 0.6427024086351437
vn 0.29731846911073595 -0.9249163267242381 0.236920907656101
vn 0.29731846911073595 -0.9249163267242381 0.236920907656101
vn 0.1416388467858501 -0.6925380174689596 0.7073397567232722
vn 0.36678042619897705 -0.3589674792467808 0.8582624702272079
vn 0.04574785847191484 0.3769086369138948 0.9251199991703473
vn 0.44976790675896633 0.00579873086210862 0.8931266454260821
vn 0.38115957475978934 0.6369445340092951 0.6700888293089345
vn 0.029054401346266762 -0.8954066030513765 -0.44430041298023204
vn 0.29731846911073595 -0.9249163267242381 0.236920907656101
vn -0.17768330746507371 -0.973778993752922 0.142067285374989
vn -0.5087274824441801 0.25157123385846697 0.823351846357883
vn -0.531768574483607 -0.24568050259891783 0.8104710197375448
vn -0.6084897358375745 0.002594123060682978 0.7935575038432091
vn -0.14517950474322713 0.6895797593475822 -0.7095087504045612
vn -0.139442545145782 0.34096127012491406 -0.9296780027934791
vn -0.15869924411749128 -0.0028382748934387848 -0.9873228925291697
vn -0.32829914531794907 0.6517151799587549 -0.683730206583585
vn -0.15256620998614098 0.9849508440282925 -0.08121198445069175
vn -0.13776489442450227 0.9594406032996183 -0.24595642419800748
vn -0.32829914531794907 0.6517151799587549 -0.683730206583585
vn -0.13776489442450227 0.9594406032996183 -0.24595642419800748
vn -0.14517950474322713 0.6895797593475822 -0.7095087504045612
vn -0.32829914531794907 0.6517151799587549 -0.683730206583585
vn -0.14517950474322713 0.6895797593475822 -0.7095087504045612
vn -0.09067330883141156 -0.0007019475164196826 -0.9958804437959646
vn -0.4127149048182813 0.7151934016456954 0.5640609945593615
vn -0.8877653765971116 0.259990814626031 0.3798386663117403
vn -0.5087274824441801 0.25157123385846697 0.823351846357883
vn -0.6641284370270968 0.7463166800535845 -0.04410025176505468
vn -0.32829914531794907 0.6517151799587549 -0.683730206583585
vn -0.9482882327555461 -0.019379603367868148 -0.316818336891455
vn -0.531768574483607 -0.24568050259891783 0.8104710197375448
vn -0.8962629958098782 -0.28874398094921716 0.33665940623648166
vn -0.5973794925261856 -0.6996487225552238 0.39195587371029506
f 1//1 2//2 3//3
f 4//4 5//5 6//6
f 7//7 8//8 9//9
f 10//10 11//11 12//12
f 13//13 14//14 15//15
f 16//16 17//17 18//18
f 19//19 20//20 21//21
f 22//22 23//23 24//24
f 25//25 26//26 27//27
f 28//28 29//29 30//30
f 31//31 32//32 33//33
f 34//34 35//35 36//36
f 37//37 38//38 39//39
f 40//40 41//41 42//42
f 43//43 44//44 45//45
f 46//46 47//47 48//48
f 49//49 50//50 51//51
f 52//52 53//53 54//54
f 55//55 56//56 57//57
f 58//58 59//59 60//60
f 61//61 62//62 63//63
f 64//64 65//65 66//66
f 67//67 68//68 69//69
f 70//70 71//71 72//72
f 73//73 74//74 75//75
f 76//76 77//77 78//78
f 79//79 80//80 81//81
f 82//82 83//83 84//84
f 85//85 86//86 87//87
f 88//88 89//89 90//90
f 91//91 92//92 93//93
f 94//94 95//95 96//96
f 97//97 98//98 99//99
f 100//100 101//101 102//102
f 103//103 104//104 105//105
f 106//106 107//107 108//108
f 109//109 110//110 111//111
f 112//112 113//113 114//114
f 115//115 116//116 117//117
f 118//118 119//119 120//120
f 121//121 122//122 123//123
f 124//124 125//125 126//126
f 127//127 128//128 129//129
f 130//130 131//131 132//132
f 133//133 134//134 135//135
f 136//136 137//137 138//138
f 139//139 140//140 141//141
f 142//142 143//143 144//144
f 145//145 146//146 147//147
f 148//148 149//149 150//150
f 151//151 152//152 153//153
f 154//154 155//155 156//156
f 157//157 158//158 159//159
f 160//160 161//161 162//162
f 163//163 164//164 165//165
f 166//166 167//167 168//168
f 169//169 170//170 171//171
f 172//172 173//173 174//174
f 175//175 176//176 177//177
f 178//178 179//179 180//180
f 181//181 182//182 183//183
f 184//184 185//185 186//186
f 187//187 188//188 189//189
f 190//190 191//191 192//192
f 193//193 194//194 195//195
f 196//196 197//197 198//198
f 199//199 200//200 201//201
f 202//202 203//203 204//204
f 205//205 206//206 207//207
f 208//208 209//209 210//210
f 211//211 212//212 213//213
f 214//214 215//215 216//216
f 217//217 218//218 219//219
f 220//220 221//221 222//222
f 223//223 224//224 225//225
f 226//226 227//227 228//228
f 229//229 230//230 231//231
f 232//232 233//233 234//234
f 235//235 236//236 237//237
f 238//238 239//239 240//240
f 241//241 242//242 243//243
f 244//244 245//245 246//246
f 247//247 248//248 249//249
f 250//250 251//251 252//252
f 253//253 254//254 255//255
f 256//256 257//257 258//258
f 259//259 260//260 261//261
f 262//262 263//263 264//264
f 265//265 266//266 267//267
f 268//268 269//269 270//270
f 271//271 272//272 273//273
f 274//274 275//275 276//276
f 277//277 278//278 279//279
f 280//280 281//281 282//282
f 283//283 284//284 285//285
f 286//286 287//287 288//288
f 289//289 290//290 291//291
f 292//292 293//293 294//294
f 295//295 296//296 297//297
f 298//298 299//299 300//300
f 301//301 302//302 303//303
f 304//304 305//305 306//306
f 307//307 308//308 309//309
f 310//310 311//311 312//312
f 313//313 314//314 315//315
f 316//316 317//317 318//318
f 319//319 320//320 321//321
f 322//322 323//323 324//324
f 325//325 326//326 327//327
f 328//328 329//329 330//330
f 331//331 332//332 333//333
f 334//334 335//335 336//336
f 337//337 338//338 339//339
f 340//340 341//341 342//342
f 343//343 344//344 345//345
f 346//346 347//347 348//348
f 349//349 350//350 351//351
f 352//352 353//353 354//354
f 355//355 356//356 357//357
f 358//358 359//359 360//360
f 361//361 362//362 363//363
f 364//364 365//365 366//366
f 367//367 368//368 369//369
f 370//370 371//371 372//372
f 373//373 374//374 375//375
f 376//376 377//377 378//378
f 379//379 380//380 381//381
f 382//382 383//383 384//384
f 385//385 386//386 387//387
f 388//388 389//389 390//390
f 391//391 392//392 393//393
f 394//394 395//395 396//396
f 397//397 398//398 399//399
f 400//400 401//401 402//402
f 403//403 404//404 405//405
f 406//406 407//407 408//408
f 409//409 410//410 411//411
f 412//412 413//413 414//414
f 415//415 416//416 417//417
f 418//418 419//419 420//420
